<svg xmlns="http://www.w3.org/2000/svg" viewBox="0 0 250 250"><defs><style>.cls-1{fill:#e1490f;}</style></defs><title>icon-easy-sign-up-process</title><g id="Layer_3" data-name="Layer 3"><path class="cls-1" d="M60,55A15,15,0,1,0,75,70,15,15,0,0,0,60,55Zm0,0A15,15,0,1,0,75,70,15,15,0,0,0,60,55Zm0,0A15,15,0,1,0,75,70,15,15,0,0,0,60,55Zm0,0A15,15,0,1,0,75,70,15,15,0,0,0,60,55Zm0,57a15,15,0,1,0,15,15A15,15,0,0,0,60,112Zm0-57A15,15,0,1,0,75,70,15,15,0,0,0,60,55Zm0,57a15,15,0,1,0,15,15A15,15,0,0,0,60,112Zm0-57A15,15,0,1,0,75,70,15,15,0,0,0,60,55Zm0,57a15,15,0,1,0,15,15A15,15,0,0,0,60,112Zm0-57A15,15,0,1,0,75,70,15,15,0,0,0,60,55ZM85,176v30h80V176Zm56.77,6.77-20,20a2.51,2.51,0,0,1-3.54,0l-10-10a2.5,2.5,0,0,1,3.54-3.54l8.23,8.23,18.23-18.23a2.5,2.5,0,0,1,3.54,3.54ZM85,176v30h80V176Zm56.77,6.77-20,20a2.51,2.51,0,0,1-3.54,0l-10-10a2.5,2.5,0,0,1,3.54-3.54l8.23,8.23,18.23-18.23a2.5,2.5,0,0,1,3.54,3.54ZM60,112a15,15,0,1,0,15,15A15,15,0,0,0,60,112Zm0-57A15,15,0,1,0,75,70,15,15,0,0,0,60,55Zm0,57a15,15,0,1,0,15,15A15,15,0,0,0,60,112Zm0-57A15,15,0,1,0,75,70,15,15,0,0,0,60,55ZM85,176v30h80V176Zm56.77,6.77-20,20a2.51,2.51,0,0,1-3.54,0l-10-10a2.5,2.5,0,0,1,3.54-3.54l8.23,8.23,18.23-18.23a2.5,2.5,0,0,1,3.54,3.54ZM85,176v30h80V176Zm56.77,6.77-20,20a2.51,2.51,0,0,1-3.54,0l-10-10a2.5,2.5,0,0,1,3.54-3.54l8.23,8.23,18.23-18.23a2.5,2.5,0,0,1,3.54,3.54ZM60,112a15,15,0,1,0,15,15A15,15,0,0,0,60,112Zm0-57A15,15,0,1,0,75,70,15,15,0,0,0,60,55ZM125,0A125,125,0,1,0,250,125,125,125,0,0,0,125,0ZM100,55H210a5,5,0,0,1,0,10H100a5,5,0,0,1,0-10ZM60,45A25,25,0,1,1,35,70,25,25,0,0,1,60,45ZM35,127a25,25,0,1,1,25,25A25,25,0,0,1,35,127Zm140,82a7,7,0,0,1-7,7H82a7,7,0,0,1-7-7V173a7,7,0,0,1,7-7h86a7,7,0,0,1,7,7Zm35-67H100a5,5,0,0,1,0-10H210a5,5,0,0,1,0,10Zm0-20H100a5,5,0,0,1,0-10H210a5,5,0,0,1,0,10Zm0-37H100a5,5,0,0,1,0-10H210a5,5,0,0,1,0,10ZM85,206h80V176H85Zm23.23-16.77a2.52,2.52,0,0,1,3.54,0l8.23,8.23,18.23-18.23a2.5,2.5,0,0,1,3.54,3.54l-20,20a2.51,2.51,0,0,1-3.54,0l-10-10A2.52,2.52,0,0,1,108.23,189.23ZM60,85A15,15,0,1,0,45,70,15,15,0,0,0,60,85Zm0,27a15,15,0,1,0,15,15A15,15,0,0,0,60,112Zm0-57A15,15,0,1,0,75,70,15,15,0,0,0,60,55Zm0,57a15,15,0,1,0,15,15A15,15,0,0,0,60,112Zm25,64v30h80V176Zm56.77,6.77-20,20a2.51,2.51,0,0,1-3.54,0l-10-10a2.5,2.5,0,0,1,3.54-3.54l8.23,8.23,18.23-18.23a2.5,2.5,0,0,1,3.54,3.54ZM85,176v30h80V176Zm56.77,6.77-20,20a2.51,2.51,0,0,1-3.54,0l-10-10a2.5,2.5,0,0,1,3.54-3.54l8.23,8.23,18.23-18.23a2.5,2.5,0,0,1,3.54,3.54ZM60,55A15,15,0,1,0,75,70,15,15,0,0,0,60,55Zm0,57a15,15,0,1,0,15,15A15,15,0,0,0,60,112Zm0-57A15,15,0,1,0,75,70,15,15,0,0,0,60,55Zm0,57a15,15,0,1,0,15,15A15,15,0,0,0,60,112Zm25,64v30h80V176Zm56.77,6.77-20,20a2.51,2.51,0,0,1-3.54,0l-10-10a2.5,2.5,0,0,1,3.54-3.54l8.23,8.23,18.23-18.23a2.5,2.5,0,0,1,3.54,3.54ZM85,176v30h80V176Zm56.77,6.77-20,20a2.51,2.51,0,0,1-3.54,0l-10-10a2.5,2.5,0,0,1,3.54-3.54l8.23,8.23,18.23-18.23a2.5,2.5,0,0,1,3.54,3.54ZM60,55A15,15,0,1,0,75,70,15,15,0,0,0,60,55Zm0,57a15,15,0,1,0,15,15A15,15,0,0,0,60,112Zm0-57A15,15,0,1,0,75,70,15,15,0,0,0,60,55Zm0,0A15,15,0,1,0,75,70,15,15,0,0,0,60,55Zm0,0A15,15,0,1,0,75,70,15,15,0,0,0,60,55Zm0,0A15,15,0,1,0,75,70,15,15,0,0,0,60,55Zm0,0A15,15,0,1,0,75,70,15,15,0,0,0,60,55Zm0,0A15,15,0,1,0,75,70,15,15,0,0,0,60,55Z"/></g></svg>