<svg xmlns="http://www.w3.org/2000/svg" viewBox="0 0 250 250"><defs><style>.cls-1{fill:#e1490f;}</style></defs><title>icon-advanced-admin-tools</title><g id="Layer_3" data-name="Layer 3"><path class="cls-1" d="M125,0A125,125,0,1,0,250,125,125,125,0,0,0,125,0ZM50,72.64a4,4,0,0,1,1.09-2.8l9-9a4,4,0,0,1,2.79-1.09,3.76,3.76,0,0,1,2,.58L82.67,71.86a6.09,6.09,0,0,1,2.49,4.85L85,79.95a8.1,8.1,0,0,0,2.1,5.34l19.1,18.84-12,11.23L75.49,96.88a8.25,8.25,0,0,0-5.38-2.06L66.88,95A6.09,6.09,0,0,1,62,92.46L50.58,74.7A3.79,3.79,0,0,1,50,72.64Zm139,102.8-21.9,21.89a3.08,3.08,0,0,1-2.14.88,2.93,2.93,0,0,1-2.19-1l-36.06-39.75,22-23.11,40.13,36.75a2.94,2.94,0,0,1,1,2.21A3,3,0,0,1,189,175.44Zm-10.12-57.8a37.58,37.58,0,0,1-18.37,4.87,35.74,35.74,0,0,1-12-2.07L76.89,192a6.28,6.28,0,0,1-8.84,0L54.79,178.77a6.28,6.28,0,0,1,0-8.84l72-72A35.59,35.59,0,0,1,125,86.88a36.41,36.41,0,0,1,18.71-31.7A37.19,37.19,0,0,1,161.93,50a31.54,31.54,0,0,1,18.58,6.23l-31.1,16.61,17.38,27.86L197,85.5c.07,1,.1,1.9.1,2.83C197.07,101.68,189.85,111.45,178.86,117.64Z"/></g></svg>