<svg xmlns="http://www.w3.org/2000/svg" viewBox="0 0 250 250"><defs><style>.cls-1{fill:#e1490f;}</style></defs><title>icon-simple-creation</title><g id="Layer_3" data-name="Layer 3"><path class="cls-1" d="M67.82,173c-6.53,1.36-7,6.24-6.62,8.19.59,2.81,3,4.38,6.6,4.38s6.44-2.36,6.58-4.58C74.52,178.36,74.38,174.39,67.82,173Zm87.77-31.93c-15.46-16-30.93-32.06-47-48.66-2.54,2.31-5.27,4.81-8.35,7.6,17.33,16.92,33.1,32.33,49.55,48.42,2.48-2.36,4.27-3.45,7.29-6.33C156.2,142.38,156.2,141.29,155.59,141.1Zm-.71-82.36c-3.17-3.15-5.51-2.34-8.23.48-4.93,5.13-10.3,9.85-14.87,15.27-2,2.34-5.42,7.64-3.63,9.05,1.89,1,7.08.59,10.44,0,5-1,12.78-6.7,14.75-4.29,2,1.84-.86,10.3-2.13,15.25-1.75,6.76-.55,8.37,6.67,7.28,9.12-1.41,11,.63,9.82,10-.25,2-1,3.85.5,6.06,1.61.79,5.54-.53,7.28-2,6.24-5.24,12-11,19.31-17.84C180.93,84.4,167.84,71.65,154.88,58.74Zm0,0c-3.17-3.15-5.51-2.34-8.23.48-4.93,5.13-10.3,9.85-14.87,15.27-2,2.34-5.42,7.64-3.63,9.05,1.89,1,7.08.59,10.44,0,5-1,12.78-6.7,14.75-4.29,2,1.84-.86,10.3-2.13,15.25-1.75,6.76-.55,8.37,6.67,7.28,9.12-1.41,11,.63,9.82,10-.25,2-1,3.85.5,6.06,1.61.79,5.54-.53,7.28-2,6.24-5.24,12-11,19.31-17.84C180.93,84.4,167.84,71.65,154.88,58.74Zm.71,82.36c-15.46-16-30.93-32.06-47-48.66-2.54,2.31-5.27,4.81-8.35,7.6,17.33,16.92,33.1,32.33,49.55,48.42,2.48-2.36,4.27-3.45,7.29-6.33C156.2,142.38,156.2,141.29,155.59,141.1ZM67.82,173c-6.53,1.36-7,6.24-6.62,8.19.59,2.81,3,4.38,6.6,4.38s6.44-2.36,6.58-4.58C74.52,178.36,74.38,174.39,67.82,173Zm0,0c-6.53,1.36-7,6.24-6.62,8.19.59,2.81,3,4.38,6.6,4.38s6.44-2.36,6.58-4.58C74.52,178.36,74.38,174.39,67.82,173Zm87.77-31.93c-15.46-16-30.93-32.06-47-48.66-2.54,2.31-5.27,4.81-8.35,7.6,17.33,16.92,33.1,32.33,49.55,48.42,2.48-2.36,4.27-3.45,7.29-6.33C156.2,142.38,156.2,141.29,155.59,141.1Zm-.71-82.36c-3.17-3.15-5.51-2.34-8.23.48-4.93,5.13-10.3,9.85-14.87,15.27-2,2.34-5.42,7.64-3.63,9.05,1.89,1,7.08.59,10.44,0,5-1,12.78-6.7,14.75-4.29,2,1.84-.86,10.3-2.13,15.25-1.75,6.76-.55,8.37,6.67,7.28,9.12-1.41,11,.63,9.82,10-.25,2-1,3.85.5,6.06,1.61.79,5.54-.53,7.28-2,6.24-5.24,12-11,19.31-17.84C180.93,84.4,167.84,71.65,154.88,58.74Zm0,0c-3.17-3.15-5.51-2.34-8.23.48-4.93,5.13-10.3,9.85-14.87,15.27-2,2.34-5.42,7.64-3.63,9.05,1.89,1,7.08.59,10.44,0,5-1,12.78-6.7,14.75-4.29,2,1.84-.86,10.3-2.13,15.25-1.75,6.76-.55,8.37,6.67,7.28,9.12-1.41,11,.63,9.82,10-.25,2-1,3.85.5,6.06,1.61.79,5.54-.53,7.28-2,6.24-5.24,12-11,19.31-17.84C180.93,84.4,167.84,71.65,154.88,58.74Zm.71,82.36c-15.46-16-30.93-32.06-47-48.66-2.54,2.31-5.27,4.81-8.35,7.6,17.33,16.92,33.1,32.33,49.55,48.42,2.48-2.36,4.27-3.45,7.29-6.33C156.2,142.38,156.2,141.29,155.59,141.1ZM67.82,173c-6.53,1.36-7,6.24-6.62,8.19.59,2.81,3,4.38,6.6,4.38s6.44-2.36,6.58-4.58C74.52,178.36,74.38,174.39,67.82,173Zm0,0c-6.53,1.36-7,6.24-6.62,8.19.59,2.81,3,4.38,6.6,4.38s6.44-2.36,6.58-4.58C74.52,178.36,74.38,174.39,67.82,173Zm87.77-31.93c-15.46-16-30.93-32.06-47-48.66-2.54,2.31-5.27,4.81-8.35,7.6,17.33,16.92,33.1,32.33,49.55,48.42,2.48-2.36,4.27-3.45,7.29-6.33C156.2,142.38,156.2,141.29,155.59,141.1Zm-.71-82.36c-3.17-3.15-5.51-2.34-8.23.48-4.93,5.13-10.3,9.85-14.87,15.27-2,2.34-5.42,7.64-3.63,9.05,1.89,1,7.08.59,10.44,0,5-1,12.78-6.7,14.75-4.29,2,1.84-.86,10.3-2.13,15.25-1.75,6.76-.55,8.37,6.67,7.28,9.12-1.41,11,.63,9.82,10-.25,2-1,3.85.5,6.06,1.61.79,5.54-.53,7.28-2,6.24-5.24,12-11,19.31-17.84C180.93,84.4,167.84,71.65,154.88,58.74Zm0,0c-3.17-3.15-5.51-2.34-8.23.48-4.93,5.13-10.3,9.85-14.87,15.27-2,2.34-5.42,7.64-3.63,9.05,1.89,1,7.08.59,10.44,0,5-1,12.78-6.7,14.75-4.29,2,1.84-.86,10.3-2.13,15.25-1.75,6.76-.55,8.37,6.67,7.28,9.12-1.41,11,.63,9.82,10-.25,2-1,3.85.5,6.06,1.61.79,5.54-.53,7.28-2,6.24-5.24,12-11,19.31-17.84C180.93,84.4,167.84,71.65,154.88,58.74Zm.71,82.36c-15.46-16-30.93-32.06-47-48.66-2.54,2.31-5.27,4.81-8.35,7.6,17.33,16.92,33.1,32.33,49.55,48.42,2.48-2.36,4.27-3.45,7.29-6.33C156.2,142.38,156.2,141.29,155.59,141.1ZM67.82,173c-6.53,1.36-7,6.24-6.62,8.19.59,2.81,3,4.38,6.6,4.38s6.44-2.36,6.58-4.58C74.52,178.36,74.38,174.39,67.82,173Zm0,0c-6.53,1.36-7,6.24-6.62,8.19.59,2.81,3,4.38,6.6,4.38s6.44-2.36,6.58-4.58C74.52,178.36,74.38,174.39,67.82,173Zm87.77-31.93c-15.46-16-30.93-32.06-47-48.66-2.54,2.31-5.27,4.81-8.35,7.6,17.33,16.92,33.1,32.33,49.55,48.42,2.48-2.36,4.27-3.45,7.29-6.33C156.2,142.38,156.2,141.29,155.59,141.1Zm-.71-82.36c-3.17-3.15-5.51-2.34-8.23.48-4.93,5.13-10.3,9.85-14.87,15.27-2,2.34-5.42,7.64-3.63,9.05,1.89,1,7.08.59,10.44,0,5-1,12.78-6.7,14.75-4.29,2,1.84-.86,10.3-2.13,15.25-1.75,6.76-.55,8.37,6.67,7.28,9.12-1.41,11,.63,9.82,10-.25,2-1,3.85.5,6.06,1.61.79,5.54-.53,7.28-2,6.24-5.24,12-11,19.31-17.84C180.93,84.4,167.84,71.65,154.88,58.74Zm0,0c-3.17-3.15-5.51-2.34-8.23.48-4.93,5.13-10.3,9.85-14.87,15.27-2,2.34-5.42,7.64-3.63,9.05,1.89,1,7.08.59,10.44,0,5-1,12.78-6.7,14.75-4.29,2,1.84-.86,10.3-2.13,15.25-1.75,6.76-.55,8.37,6.67,7.28,9.12-1.41,11,.63,9.82,10-.25,2-1,3.85.5,6.06,1.61.79,5.54-.53,7.28-2,6.24-5.24,12-11,19.31-17.84C180.93,84.4,167.84,71.65,154.88,58.74Zm.71,82.36c-15.46-16-30.93-32.06-47-48.66-2.54,2.31-5.27,4.81-8.35,7.6,17.33,16.92,33.1,32.33,49.55,48.42,2.48-2.36,4.27-3.45,7.29-6.33C156.2,142.38,156.2,141.29,155.59,141.1ZM67.82,173c-6.53,1.36-7,6.24-6.62,8.19.59,2.81,3,4.38,6.6,4.38s6.44-2.36,6.58-4.58C74.52,178.36,74.38,174.39,67.82,173Zm0,0c-6.53,1.36-7,6.24-6.62,8.19.59,2.81,3,4.38,6.6,4.38s6.44-2.36,6.58-4.58C74.52,178.36,74.38,174.39,67.82,173Zm87.77-31.93c-15.46-16-30.93-32.06-47-48.66-2.54,2.31-5.27,4.81-8.35,7.6,17.33,16.92,33.1,32.33,49.55,48.42,2.48-2.36,4.27-3.45,7.29-6.33C156.2,142.38,156.2,141.29,155.59,141.1Zm-.71-82.36c-3.17-3.15-5.51-2.34-8.23.48-4.93,5.13-10.3,9.85-14.87,15.27-2,2.34-5.42,7.64-3.63,9.05,1.89,1,7.08.59,10.44,0,5-1,12.78-6.7,14.75-4.29,2,1.84-.86,10.3-2.13,15.25-1.75,6.76-.55,8.37,6.67,7.28,9.12-1.41,11,.63,9.82,10-.25,2-1,3.85.5,6.06,1.61.79,5.54-.53,7.28-2,6.24-5.24,12-11,19.31-17.84C180.93,84.4,167.84,71.65,154.88,58.74Zm0,0c-3.17-3.15-5.51-2.34-8.23.48-4.93,5.13-10.3,9.85-14.87,15.27-2,2.34-5.42,7.64-3.63,9.05,1.89,1,7.08.59,10.44,0,5-1,12.78-6.7,14.75-4.29,2,1.84-.86,10.3-2.13,15.25-1.75,6.76-.55,8.37,6.67,7.28,9.12-1.41,11,.63,9.82,10-.25,2-1,3.85.5,6.06,1.61.79,5.54-.53,7.28-2,6.24-5.24,12-11,19.31-17.84C180.93,84.4,167.84,71.65,154.88,58.74Zm.71,82.36c-15.46-16-30.93-32.06-47-48.66-2.54,2.31-5.27,4.81-8.35,7.6,17.33,16.92,33.1,32.33,49.55,48.42,2.48-2.36,4.27-3.45,7.29-6.33C156.2,142.38,156.2,141.29,155.59,141.1ZM67.82,173c-6.53,1.36-7,6.24-6.62,8.19.59,2.81,3,4.38,6.6,4.38s6.44-2.36,6.58-4.58C74.52,178.36,74.38,174.39,67.82,173Zm0,0c-6.53,1.36-7,6.24-6.62,8.19.59,2.81,3,4.38,6.6,4.38s6.44-2.36,6.58-4.58C74.52,178.36,74.38,174.39,67.82,173Zm87.77-31.93c-15.46-16-30.93-32.06-47-48.66-2.54,2.31-5.27,4.81-8.35,7.6,17.33,16.92,33.1,32.33,49.55,48.42,2.48-2.36,4.27-3.45,7.29-6.33C156.2,142.38,156.2,141.29,155.59,141.1Zm-.71-82.36c-3.17-3.15-5.51-2.34-8.23.48-4.93,5.13-10.3,9.85-14.87,15.27-2,2.34-5.42,7.64-3.63,9.05,1.89,1,7.08.59,10.44,0,5-1,12.78-6.7,14.75-4.29,2,1.84-.86,10.3-2.13,15.25-1.75,6.76-.55,8.37,6.67,7.28,9.12-1.41,11,.63,9.82,10-.25,2-1,3.85.5,6.06,1.61.79,5.54-.53,7.28-2,6.24-5.24,12-11,19.31-17.84C180.93,84.4,167.84,71.65,154.88,58.74Zm0,0c-3.17-3.15-5.51-2.34-8.23.48-4.93,5.13-10.3,9.85-14.87,15.27-2,2.34-5.42,7.64-3.63,9.05,1.89,1,7.08.59,10.44,0,5-1,12.78-6.7,14.75-4.29,2,1.84-.86,10.3-2.13,15.25-1.75,6.76-.55,8.37,6.67,7.28,9.12-1.41,11,.63,9.82,10-.25,2-1,3.85.5,6.06,1.61.79,5.54-.53,7.28-2,6.24-5.24,12-11,19.31-17.84C180.93,84.4,167.84,71.65,154.88,58.74Zm.71,82.36c-15.46-16-30.93-32.06-47-48.66-2.54,2.31-5.27,4.81-8.35,7.6,17.33,16.92,33.1,32.33,49.55,48.42,2.48-2.36,4.27-3.45,7.29-6.33C156.2,142.38,156.2,141.29,155.59,141.1ZM67.82,173c-6.53,1.36-7,6.24-6.62,8.19.59,2.81,3,4.38,6.6,4.38s6.44-2.36,6.58-4.58C74.52,178.36,74.38,174.39,67.82,173Zm0,0c-6.53,1.36-7,6.24-6.62,8.19.59,2.81,3,4.38,6.6,4.38s6.44-2.36,6.58-4.58C74.52,178.36,74.38,174.39,67.82,173Zm87.77-31.93c-15.46-16-30.93-32.06-47-48.66-2.54,2.31-5.27,4.81-8.35,7.6,17.33,16.92,33.1,32.33,49.55,48.42,2.48-2.36,4.27-3.45,7.29-6.33C156.2,142.38,156.2,141.29,155.59,141.1Zm-.71-82.36c-3.17-3.15-5.51-2.34-8.23.48-4.93,5.13-10.3,9.85-14.87,15.27-2,2.34-5.42,7.64-3.63,9.05,1.89,1,7.08.59,10.44,0,5-1,12.78-6.7,14.75-4.29,2,1.84-.86,10.3-2.13,15.25-1.75,6.76-.55,8.37,6.67,7.28,9.12-1.41,11,.63,9.82,10-.25,2-1,3.85.5,6.06,1.61.79,5.54-.53,7.28-2,6.24-5.24,12-11,19.31-17.84C180.93,84.4,167.84,71.65,154.88,58.74Zm0,0c-3.17-3.15-5.51-2.34-8.23.48-4.93,5.13-10.3,9.85-14.87,15.27-2,2.34-5.42,7.64-3.63,9.05,1.89,1,7.08.59,10.44,0,5-1,12.78-6.7,14.75-4.29,2,1.84-.86,10.3-2.13,15.25-1.75,6.76-.55,8.37,6.67,7.28,9.12-1.41,11,.63,9.82,10-.25,2-1,3.85.5,6.06,1.61.79,5.54-.53,7.28-2,6.24-5.24,12-11,19.31-17.84C180.93,84.4,167.84,71.65,154.88,58.74Zm.71,82.36c-15.46-16-30.93-32.06-47-48.66-2.54,2.31-5.27,4.81-8.35,7.6,17.33,16.92,33.1,32.33,49.55,48.42,2.48-2.36,4.27-3.45,7.29-6.33C156.2,142.38,156.2,141.29,155.59,141.1ZM67.82,173c-6.53,1.36-7,6.24-6.62,8.19.59,2.81,3,4.38,6.6,4.38s6.44-2.36,6.58-4.58C74.52,178.36,74.38,174.39,67.82,173ZM125,0A125,125,0,1,0,250,125,125,125,0,0,0,125,0ZM35,75a5,5,0,0,1,5-5H60V50a5,5,0,0,1,10,0V70H90a5,5,0,0,1,0,10H70v20a5,5,0,0,1-10,0V80H40A5,5,0,0,1,35,75ZM140,209H129v11a4,4,0,0,1-8,0V209H110a4,4,0,0,1,0-8h11V190a4,4,0,0,1,8,0v11h11a4,4,0,0,1,0,8Zm14.22-52.15c-3.6,3.68-6.94,5-11.36,1.79a19.51,19.51,0,0,0-3.68-1.77c-20.22-8.46-27.16-6.28-35.83,13.78-5.55,12.88-14.2,22.12-26.77,27.18-5.49,2.2-12.27,2.49-18.29,1.9-6.71-.68-9.75-7.05-9.66-21.1C49.56,168,58,158,70.43,150.75c4.93-2.88,10.37-4.88,15.32-7.76,11.07-6.47,12.68-10.55,9.55-23-.79-3.17-1.25-6.69-3-9.3-5.42-8.14-2.17-13.36,4.13-19.4C113,75.46,129.11,59.06,145.08,42.59c4.47-4.61,7.44-4.61,11.91,0q24.54,25.29,49.72,50c4.24,4.17,4.49,7.12.13,11.41Q180.26,130.16,154.22,156.85ZM220,142h-8v8a2,2,0,0,1-4,0v-8h-8a2,2,0,0,1,0-4h8v-8a2,2,0,0,1,4,0v8h8a2,2,0,0,1,0,4ZM146.65,59.22c-4.93,5.13-10.3,9.85-14.87,15.27-2,2.34-5.42,7.64-3.63,9.05,1.89,1,7.08.59,10.44,0,5-1,12.78-6.7,14.75-4.29,2,1.84-.86,10.3-2.13,15.25-1.75,6.76-.55,8.37,6.67,7.28,9.12-1.41,11,.63,9.82,10-.25,2-1,3.85.5,6.06,1.61.79,5.54-.53,7.28-2,6.24-5.24,12-11,19.31-17.84-13.86-13.59-26.95-26.34-39.91-39.25C151.71,55.59,149.37,56.4,146.65,59.22Zm8.94,81.88c-15.46-16-30.93-32.06-47-48.66-2.54,2.31-5.27,4.81-8.35,7.6,17.33,16.92,33.1,32.33,49.55,48.42,2.48-2.36,4.27-3.45,7.29-6.33C156.2,142.38,156.2,141.29,155.59,141.1ZM67.82,173c-6.53,1.36-7,6.24-6.62,8.19.59,2.81,3,4.38,6.6,4.38s6.44-2.36,6.58-4.58C74.52,178.36,74.38,174.39,67.82,173Zm0,0c-6.53,1.36-7,6.24-6.62,8.19.59,2.81,3,4.38,6.6,4.38s6.44-2.36,6.58-4.58C74.52,178.36,74.38,174.39,67.82,173Zm87.77-31.93c-15.46-16-30.93-32.06-47-48.66-2.54,2.31-5.27,4.81-8.35,7.6,17.33,16.92,33.1,32.33,49.55,48.42,2.48-2.36,4.27-3.45,7.29-6.33C156.2,142.38,156.2,141.29,155.59,141.1Zm-.71-82.36c-3.17-3.15-5.51-2.34-8.23.48-4.93,5.13-10.3,9.85-14.87,15.27-2,2.34-5.42,7.64-3.63,9.05,1.89,1,7.08.59,10.44,0,5-1,12.78-6.7,14.75-4.29,2,1.84-.86,10.3-2.13,15.25-1.75,6.76-.55,8.37,6.67,7.28,9.12-1.41,11,.63,9.82,10-.25,2-1,3.85.5,6.06,1.61.79,5.54-.53,7.28-2,6.24-5.24,12-11,19.31-17.84C180.93,84.4,167.84,71.65,154.88,58.74Zm0,0c-3.17-3.15-5.51-2.34-8.23.48-4.93,5.13-10.3,9.85-14.87,15.27-2,2.34-5.42,7.64-3.63,9.05,1.89,1,7.08.59,10.44,0,5-1,12.78-6.7,14.75-4.29,2,1.84-.86,10.3-2.13,15.25-1.75,6.76-.55,8.37,6.67,7.28,9.12-1.41,11,.63,9.82,10-.25,2-1,3.85.5,6.06,1.61.79,5.54-.53,7.28-2,6.24-5.24,12-11,19.31-17.84C180.93,84.4,167.84,71.65,154.88,58.74Zm.71,82.36c-15.46-16-30.93-32.06-47-48.66-2.54,2.31-5.27,4.81-8.35,7.6,17.33,16.92,33.1,32.33,49.55,48.42,2.48-2.36,4.27-3.45,7.29-6.33C156.2,142.38,156.2,141.29,155.59,141.1ZM67.82,173c-6.53,1.36-7,6.24-6.62,8.19.59,2.81,3,4.38,6.6,4.38s6.44-2.36,6.58-4.58C74.52,178.36,74.38,174.39,67.82,173Zm0,0c-6.53,1.36-7,6.24-6.62,8.19.59,2.81,3,4.38,6.6,4.38s6.44-2.36,6.58-4.58C74.52,178.36,74.38,174.39,67.82,173Zm87.77-31.93c-15.46-16-30.93-32.06-47-48.66-2.54,2.31-5.27,4.81-8.35,7.6,17.33,16.92,33.1,32.33,49.55,48.42,2.48-2.36,4.27-3.45,7.29-6.33C156.2,142.38,156.2,141.29,155.59,141.1Zm-.71-82.36c-3.17-3.15-5.51-2.34-8.23.48-4.93,5.13-10.3,9.85-14.87,15.27-2,2.34-5.42,7.64-3.63,9.05,1.89,1,7.08.59,10.44,0,5-1,12.78-6.7,14.75-4.29,2,1.84-.86,10.3-2.13,15.25-1.75,6.76-.55,8.37,6.67,7.28,9.12-1.41,11,.63,9.82,10-.25,2-1,3.85.5,6.06,1.61.79,5.54-.53,7.28-2,6.24-5.24,12-11,19.31-17.84C180.93,84.4,167.84,71.65,154.88,58.74Zm0,0c-3.17-3.15-5.51-2.34-8.23.48-4.93,5.13-10.3,9.85-14.87,15.27-2,2.34-5.42,7.64-3.63,9.05,1.89,1,7.08.59,10.44,0,5-1,12.78-6.7,14.75-4.29,2,1.84-.86,10.3-2.13,15.25-1.75,6.76-.55,8.37,6.67,7.28,9.12-1.41,11,.63,9.82,10-.25,2-1,3.85.5,6.06,1.61.79,5.54-.53,7.28-2,6.24-5.24,12-11,19.31-17.84C180.93,84.4,167.84,71.65,154.88,58.74Zm.71,82.36c-15.46-16-30.93-32.06-47-48.66-2.54,2.31-5.27,4.81-8.35,7.6,17.33,16.92,33.1,32.33,49.55,48.42,2.48-2.36,4.27-3.45,7.29-6.33C156.2,142.38,156.2,141.29,155.59,141.1ZM67.82,173c-6.53,1.36-7,6.24-6.62,8.19.59,2.81,3,4.38,6.6,4.38s6.44-2.36,6.58-4.58C74.52,178.36,74.38,174.39,67.82,173Zm0,0c-6.53,1.36-7,6.24-6.62,8.19.59,2.81,3,4.38,6.6,4.38s6.44-2.36,6.58-4.58C74.52,178.36,74.38,174.39,67.82,173Zm87.77-31.93c-15.46-16-30.93-32.06-47-48.66-2.54,2.31-5.27,4.81-8.35,7.6,17.33,16.92,33.1,32.33,49.55,48.42,2.48-2.36,4.27-3.45,7.29-6.33C156.2,142.38,156.2,141.29,155.59,141.1Zm-.71-82.36c-3.17-3.15-5.51-2.34-8.23.48-4.93,5.13-10.3,9.85-14.87,15.27-2,2.34-5.42,7.64-3.63,9.05,1.89,1,7.08.59,10.44,0,5-1,12.78-6.7,14.75-4.29,2,1.84-.86,10.3-2.13,15.25-1.75,6.76-.55,8.37,6.67,7.28,9.12-1.41,11,.63,9.82,10-.25,2-1,3.85.5,6.06,1.61.79,5.54-.53,7.28-2,6.24-5.24,12-11,19.31-17.84C180.93,84.4,167.84,71.65,154.88,58.74Zm0,0c-3.17-3.15-5.51-2.34-8.23.48-4.93,5.13-10.3,9.85-14.87,15.27-2,2.34-5.42,7.64-3.63,9.05,1.89,1,7.08.59,10.44,0,5-1,12.78-6.7,14.75-4.29,2,1.84-.86,10.3-2.13,15.25-1.75,6.76-.55,8.37,6.67,7.28,9.12-1.41,11,.63,9.82,10-.25,2-1,3.85.5,6.06,1.61.79,5.54-.53,7.28-2,6.24-5.24,12-11,19.31-17.84C180.93,84.4,167.84,71.65,154.88,58.74Zm.71,82.36c-15.46-16-30.93-32.06-47-48.66-2.54,2.31-5.27,4.81-8.35,7.6,17.33,16.92,33.1,32.33,49.55,48.42,2.48-2.36,4.27-3.45,7.29-6.33C156.2,142.38,156.2,141.29,155.59,141.1ZM67.82,173c-6.53,1.36-7,6.24-6.62,8.19.59,2.81,3,4.38,6.6,4.38s6.44-2.36,6.58-4.58C74.52,178.36,74.38,174.39,67.82,173Zm0,0c-6.53,1.36-7,6.24-6.62,8.19.59,2.81,3,4.38,6.6,4.38s6.44-2.36,6.58-4.58C74.52,178.36,74.38,174.39,67.82,173Zm87.77-31.93c-15.46-16-30.93-32.06-47-48.66-2.54,2.31-5.27,4.81-8.35,7.6,17.33,16.92,33.1,32.33,49.55,48.42,2.48-2.36,4.27-3.45,7.29-6.33C156.2,142.38,156.2,141.29,155.59,141.1Zm-.71-82.36c-3.17-3.15-5.51-2.34-8.23.48-4.93,5.13-10.3,9.85-14.87,15.27-2,2.34-5.42,7.64-3.63,9.05,1.89,1,7.08.59,10.44,0,5-1,12.78-6.7,14.75-4.29,2,1.84-.86,10.3-2.13,15.25-1.75,6.76-.55,8.37,6.67,7.28,9.12-1.41,11,.63,9.82,10-.25,2-1,3.85.5,6.06,1.61.79,5.54-.53,7.28-2,6.24-5.24,12-11,19.31-17.84C180.93,84.4,167.84,71.65,154.88,58.74Zm0,0c-3.17-3.15-5.51-2.34-8.23.48-4.93,5.13-10.3,9.85-14.87,15.27-2,2.34-5.42,7.64-3.63,9.05,1.89,1,7.08.59,10.44,0,5-1,12.78-6.7,14.75-4.29,2,1.84-.86,10.3-2.13,15.25-1.75,6.76-.55,8.37,6.67,7.28,9.12-1.41,11,.63,9.82,10-.25,2-1,3.85.5,6.06,1.61.79,5.54-.53,7.28-2,6.24-5.24,12-11,19.31-17.84C180.93,84.4,167.84,71.65,154.88,58.74Zm.71,82.36c-15.46-16-30.93-32.06-47-48.66-2.54,2.31-5.27,4.81-8.35,7.6,17.33,16.92,33.1,32.33,49.55,48.42,2.48-2.36,4.27-3.45,7.29-6.33C156.2,142.38,156.2,141.29,155.59,141.1ZM67.82,173c-6.53,1.36-7,6.24-6.62,8.19.59,2.81,3,4.38,6.6,4.38s6.44-2.36,6.58-4.58C74.52,178.36,74.38,174.39,67.82,173Zm0,0c-6.53,1.36-7,6.24-6.62,8.19.59,2.81,3,4.38,6.6,4.38s6.44-2.36,6.58-4.58C74.52,178.36,74.38,174.39,67.82,173Zm87.77-31.93c-15.46-16-30.93-32.06-47-48.66-2.54,2.31-5.27,4.81-8.35,7.6,17.33,16.92,33.1,32.33,49.55,48.42,2.48-2.36,4.27-3.45,7.29-6.33C156.2,142.38,156.2,141.29,155.59,141.1Zm-.71-82.36c-3.17-3.15-5.51-2.34-8.23.48-4.93,5.13-10.3,9.85-14.87,15.27-2,2.34-5.42,7.64-3.63,9.05,1.89,1,7.08.59,10.44,0,5-1,12.78-6.7,14.75-4.29,2,1.84-.86,10.3-2.13,15.25-1.75,6.76-.55,8.37,6.67,7.28,9.12-1.41,11,.63,9.82,10-.25,2-1,3.85.5,6.06,1.61.79,5.54-.53,7.28-2,6.24-5.24,12-11,19.31-17.84C180.93,84.4,167.84,71.65,154.88,58.74Zm0,0c-3.17-3.15-5.51-2.34-8.23.48-4.93,5.13-10.3,9.85-14.87,15.27-2,2.34-5.42,7.64-3.63,9.05,1.89,1,7.08.59,10.44,0,5-1,12.78-6.7,14.75-4.29,2,1.84-.86,10.3-2.13,15.25-1.75,6.76-.55,8.37,6.67,7.28,9.12-1.41,11,.63,9.82,10-.25,2-1,3.85.5,6.06,1.61.79,5.54-.53,7.28-2,6.24-5.24,12-11,19.31-17.84C180.93,84.4,167.84,71.65,154.88,58.74Zm.71,82.36c-15.46-16-30.93-32.06-47-48.66-2.54,2.31-5.27,4.81-8.35,7.6,17.33,16.92,33.1,32.33,49.55,48.42,2.48-2.36,4.27-3.45,7.29-6.33C156.2,142.38,156.2,141.29,155.59,141.1ZM67.82,173c-6.53,1.36-7,6.24-6.62,8.19.59,2.81,3,4.38,6.6,4.38s6.44-2.36,6.58-4.58C74.52,178.36,74.38,174.39,67.82,173Zm0,0c-6.53,1.36-7,6.24-6.62,8.19.59,2.81,3,4.38,6.6,4.38s6.44-2.36,6.58-4.58C74.52,178.36,74.38,174.39,67.82,173Zm87.77-31.93c-15.46-16-30.93-32.06-47-48.66-2.54,2.31-5.27,4.81-8.35,7.6,17.33,16.92,33.1,32.33,49.55,48.42,2.48-2.36,4.27-3.45,7.29-6.33C156.2,142.38,156.2,141.29,155.59,141.1Zm-.71-82.36c-3.17-3.15-5.51-2.34-8.23.48-4.93,5.13-10.3,9.85-14.87,15.27-2,2.34-5.42,7.64-3.63,9.05,1.89,1,7.08.59,10.44,0,5-1,12.78-6.7,14.75-4.29,2,1.84-.86,10.3-2.13,15.25-1.75,6.76-.55,8.37,6.67,7.28,9.12-1.41,11,.63,9.82,10-.25,2-1,3.85.5,6.06,1.61.79,5.54-.53,7.28-2,6.24-5.24,12-11,19.31-17.84C180.93,84.4,167.84,71.65,154.88,58.74Zm0,0c-3.17-3.15-5.51-2.34-8.23.48-4.93,5.13-10.3,9.85-14.87,15.27-2,2.34-5.42,7.64-3.63,9.05,1.89,1,7.08.59,10.44,0,5-1,12.78-6.7,14.75-4.29,2,1.84-.86,10.3-2.13,15.25-1.75,6.76-.55,8.37,6.67,7.28,9.12-1.41,11,.63,9.82,10-.25,2-1,3.85.5,6.06,1.61.79,5.54-.53,7.28-2,6.24-5.24,12-11,19.31-17.84C180.93,84.4,167.84,71.65,154.88,58.74Zm.71,82.36c-15.46-16-30.93-32.06-47-48.66-2.54,2.31-5.27,4.81-8.35,7.6,17.33,16.92,33.1,32.33,49.55,48.42,2.48-2.36,4.27-3.45,7.29-6.33C156.2,142.38,156.2,141.29,155.59,141.1ZM67.82,173c-6.53,1.36-7,6.24-6.62,8.19.59,2.81,3,4.38,6.6,4.38s6.44-2.36,6.58-4.58C74.52,178.36,74.38,174.39,67.82,173Zm0,0c-6.53,1.36-7,6.24-6.62,8.19.59,2.81,3,4.38,6.6,4.38s6.44-2.36,6.58-4.58C74.52,178.36,74.38,174.39,67.82,173Zm87.77-31.93c-15.46-16-30.93-32.06-47-48.66-2.54,2.31-5.27,4.81-8.35,7.6,17.33,16.92,33.1,32.33,49.55,48.42,2.48-2.36,4.27-3.45,7.29-6.33C156.2,142.38,156.2,141.29,155.59,141.1Zm-.71-82.36c-3.17-3.15-5.51-2.34-8.23.48-4.93,5.13-10.3,9.85-14.87,15.27-2,2.34-5.42,7.64-3.63,9.05,1.89,1,7.08.59,10.44,0,5-1,12.78-6.7,14.75-4.29,2,1.84-.86,10.3-2.13,15.25-1.75,6.76-.55,8.37,6.67,7.28,9.12-1.41,11,.63,9.82,10-.25,2-1,3.85.5,6.06,1.61.79,5.54-.53,7.28-2,6.24-5.24,12-11,19.31-17.84C180.93,84.4,167.84,71.65,154.88,58.74Zm0,0c-3.17-3.15-5.51-2.34-8.23.48-4.93,5.13-10.3,9.85-14.87,15.27-2,2.34-5.42,7.64-3.63,9.05,1.89,1,7.08.59,10.44,0,5-1,12.78-6.7,14.75-4.29,2,1.84-.86,10.3-2.13,15.25-1.75,6.76-.55,8.37,6.67,7.28,9.12-1.41,11,.63,9.82,10-.25,2-1,3.85.5,6.06,1.61.79,5.54-.53,7.28-2,6.24-5.24,12-11,19.31-17.84C180.93,84.4,167.84,71.65,154.88,58.74Zm.71,82.36c-15.46-16-30.93-32.06-47-48.66-2.54,2.31-5.27,4.81-8.35,7.6,17.33,16.92,33.1,32.33,49.55,48.42,2.48-2.36,4.27-3.45,7.29-6.33C156.2,142.38,156.2,141.29,155.59,141.1ZM67.82,173c-6.53,1.36-7,6.24-6.62,8.19.59,2.81,3,4.38,6.6,4.38s6.44-2.36,6.58-4.58C74.52,178.36,74.38,174.39,67.82,173Z"/></g></svg>