<svg xmlns="http://www.w3.org/2000/svg" viewBox="0 0 250 250"><defs><style>.cls-1{fill:#e1490f;}.cls-2{fill:#fff;}</style></defs><title>icon-powerful-group-messaging</title><g id="Layer_3" data-name="Layer 3"><path class="cls-1" d="M125,0A125,125,0,1,0,250,125,125,125,0,0,0,125,0Zm29,69.73v-9c0-8.7,5-15.81,15.5-15.81S185,52,185,60.73v9c0,3.74,0,6.21-5,7.8V90.81A76.16,76.16,0,0,1,189.9,95l-1.54,1.05-12.62,12.61c-5.37-3.11-16.49-9.46-25.78-14.09a57.89,57.89,0,0,1,9-3.78V77.57C154,76,154,73.51,154,69.73ZM99,52.49c0-12.49,7.35-22.72,22.5-22.72S144,40,144,52.49V67.56c0,5.38-2,8.93-5,11.22V97.86c9,3.48,23.65,12.11,31.22,16.48L143.82,141H106L77.05,112C85.24,107.38,97,100.78,104,97.86v-19c-3-2.29-5-5.84-5-11.28ZM58,60.73c0-8.7,4.95-15.81,15.5-15.81S89,52,89,60.73v9c0,3.74,0,6.21-5,7.8V90.81a61.79,61.79,0,0,1,9.12,3.83c-5.59,2.83-13,6.72-21.79,11.66L61.7,96.74l-3.29-4.18c1.64-.68,3.59-1.28,4.59-1.75V77.57c-5-1.59-5-4.06-5-7.84ZM55,101l.76,1,40,39.83L55,182.69Zm-.48,93,46.67-46h46.67l46.67,46ZM195,182.69l-41-40.84L193.77,102l1.23-1Z"/><polygon class="cls-2" points="195 101.02 195 182.69 154.04 141.85 193.77 102.02 195 101.02"/></g></svg>