<svg xmlns="http://www.w3.org/2000/svg" viewBox="0 0 250 250"><defs><style>.cls-1{fill:#e1490f;}.cls-2{fill:#fff;}</style></defs><title>icon-sign-up-tabbing</title><g id="Layer_3" data-name="Layer 3"><path class="cls-1" d="M125,0A125,125,0,1,0,250,125,125,125,0,0,0,125,0Zm29,62.79c12,0,25.16-.21,37.85.24a6.26,6.26,0,0,1,4.42,3.64,6.51,6.51,0,0,1,.6,1.69c.78,4.12.24,8.64.24,13.64H154Zm-50,0c13,0,25.25-.21,37.94.24a5.63,5.63,0,0,1,3.57,2.25,7.24,7.24,0,0,1,1.54,3.07c.78,4.12.24,8.64.24,13.64H104ZM207.65,186.54s-109.28.7-160.71.67c-1.39,0-5.26.16-5.26.16s0-6.24,0-8.78q-.05-52.16,0-104.31c0-10.67.86-11.48,11.51-11.52,12,0,24,.24,35.94-.11,6.29-.18,8.95,1.73,8.75,8.42-.22,7.6-.12,14.43-.12,14.43s6.36.2,14.67.21c26.88,0,53.76,0,80.64,0,13.88,0,15.2,1.37,15.21,14.82C208.32,126.84,207.65,186.54,207.65,186.54Z"/><path class="cls-2" d="M193.11,85.72c-26.88-.05-53.76,0-80.64,0-8.31,0-14.67-.21-14.67-.21s-.1-6.82.12-14.43c.19-6.69-2.47-8.6-8.75-8.42-12,.34-24,.06-35.94.11-10.65,0-11.5.85-11.51,11.52q-.06,52.16,0,104.31c0,2.54,0,8.78,0,8.78s3.87-.16,5.26-.16c51.43,0,160.71-.67,160.71-.67s.67-59.7.66-86C208.31,87.1,207,85.75,193.11,85.72Z"/><path class="cls-2" d="M147.06,68.36a7.24,7.24,0,0,0-1.54-3.07,5.73,5.73,0,0,0-3.57-2.17c-12.7-.45-24.94-.32-37.94-.32V82h43.29C147.29,77,147.84,72.48,147.06,68.36Z"/><path class="cls-2" d="M196.88,68.36a6.51,6.51,0,0,0-.6-1.69,6.24,6.24,0,0,0-4.42-3.56c-12.7-.45-25.85-.32-37.85-.32V82h43.11C197.11,77,197.66,72.48,196.88,68.36Z"/></g></svg>