<svg xmlns="http://www.w3.org/2000/svg" viewBox="0 0 250 250"><defs><style>.cls-1{fill:#e1490f;}.cls-2{fill:#fff;}</style></defs><title>icon-volunteer-hour-reports</title><g id="Layer_3" data-name="Layer 3"><rect class="cls-1" x="64" y="144" width="37" height="19"/><rect class="cls-1" x="64" y="169" width="37" height="19"/><path class="cls-1" d="M125,0A125,125,0,1,0,250,125,125,125,0,0,0,125,0Zm76,181.59c0,10.27-8.77,18.41-19,18.41H70.39A18.26,18.26,0,0,1,52,181.59V70c0-10.27,8.12-19,18.39-19H182a19.36,19.36,0,0,1,19,19Z"/><rect class="cls-1" x="64" y="64" width="124" height="18"/><rect class="cls-1" x="108" y="120" width="37" height="18"/><rect class="cls-1" x="64" y="120" width="37" height="18"/><rect class="cls-1" x="108" y="95" width="37" height="18"/><rect class="cls-1" x="108" y="169" width="37" height="19"/><rect class="cls-1" x="64" y="95" width="37" height="18"/><rect class="cls-1" x="108" y="144" width="37" height="19"/><rect class="cls-1" x="151" y="169" width="37" height="19"/><rect class="cls-1" x="151" y="120" width="37" height="18"/><rect class="cls-1" x="151" y="144" width="37" height="19"/><rect class="cls-1" x="151" y="95" width="37" height="18"/><path class="cls-2" d="M182,51H70.39C60.12,51,52,59.76,52,70V181.59A18.26,18.26,0,0,0,70.39,200H182c10.27,0,19-8.13,19-18.41V70A19.36,19.36,0,0,0,182,51ZM101,188H64V169h37Zm0-25H64V144h37Zm0-25H64V120h37Zm0-25H64V95h37Zm44,75H108V169h37Zm0-25H108V144h37Zm0-25H108V120h37Zm0-25H108V95h37Zm43,75H151V169h37Zm0-25H151V144h37Zm0-25H151V120h37Zm0-25H151V95h37Zm0-31H64V64H188Z"/></g></svg>