<svg xmlns="http://www.w3.org/2000/svg" viewBox="0 0 250 250"><defs><style>.cls-1{fill:#e1490f;}.cls-2{fill:#fff;}</style></defs><title>icon-text-messaging</title><g id="Layer_3" data-name="Layer 3"><rect class="cls-1" x="64.02" y="81" width="121" height="81" transform="translate(2.38 245.38) rotate(-89.7)"/><circle class="cls-1" cx="124.12" cy="201.7" r="14.21" transform="translate(-78.21 324.77) rotate(-89.7)"/><path class="cls-1" d="M250,125.65A125,125,0,1,1,125.65,0,125,125,0,0,1,250,125.65Z"/><path class="cls-2" d="M162.21,29.19l-72.28-.37A20.49,20.49,0,0,0,69.39,49.14L68.6,201.41a20.36,20.36,0,0,0,20.19,20.4l72.32.37a20.44,20.44,0,0,0,20.49-20.27l.79-152.33A20.35,20.35,0,0,0,162.21,29.19ZM124.05,215.41a14.21,14.21,0,1,1,14.28-14.14A14.2,14.2,0,0,1,124.05,215.41Zm41.65-33.19-81-.42.63-121,81,.42Zm-6.79-108-.11,21a5,5,0,0,1-5,5l-52-.27-10.05,9.95.19-36a5,5,0,0,1,5-5l57,.3A5,5,0,0,1,158.92,74.18Z"/></g></svg>