<svg xmlns="http://www.w3.org/2000/svg" viewBox="0 0 250 250"><defs><style>.cls-1{fill:#e1490f;}.cls-2{fill:#fff;}</style></defs><title>icon-paintbrush-custom-themes</title><g id="Layer_3" data-name="Layer 3"><path class="cls-1" d="M147.12,51.94C142,57.3,136.36,62.23,131.58,67.88c-2.08,2.46-5.66,8-3.79,9.46,2,1.11,7.4.64,10.9,0,5.23-1,13.36-7,15.41-4.48,2.09,1.92-.89,10.78-2.22,15.94-1.82,7.06-.57,8.76,7,7.61,9.55-1.47,11.55.67,10.28,10.5-.27,2-1.07,4,.52,6.31,1.7.85,5.78-.54,7.61-2.07,6.52-5.48,12.58-11.52,20.19-18.63-14.49-14.23-28.18-27.55-41.71-41C152.39,48.13,150,49,147.12,51.94Z"/><path class="cls-1" d="M156.46,137.5,107.38,86.65l-8.72,7.94,51.78,50.6c2.59-2.45,4.45-3.61,7.61-6.6C157.09,138.84,157.09,137.7,156.46,137.5Z"/><path class="cls-1" d="M125,0A125,125,0,1,0,250,125,125,125,0,0,0,125,0Zm85,98.7Q182.26,126.06,155,154c-3.77,3.84-7.25,5.17-11.89,1.88a19.59,19.59,0,0,0-3.85-1.85c-21.11-8.83-28.38-6.55-37.43,14.4-5.81,13.47-14.84,23.11-28,28.39-5.76,2.31-12.83,2.62-19.12,2-7-.7-10.19-7.36-10.1-22,1-11.08,9.83-21.58,22.78-29.14,5.15-3,10.85-5.09,16-8.11,11.58-6.77,13.26-11,10-24-.83-3.31-1.33-7-3.14-9.72-5.67-8.52-2.28-14,4.31-20.27,17.35-16.55,34.14-33.69,50.84-50.9,4.68-4.83,7.78-4.82,12.45,0q25.66,26.42,52,52.21C214.32,91.13,214.57,94.2,210,98.7Z"/><path class="cls-1" d="M64.75,170.87c-6.84,1.43-7.35,6.53-6.93,8.57.61,2.92,3.1,4.57,6.9,4.57s6.74-2.47,6.87-4.78C71.73,176.45,71.59,172.3,64.75,170.87Z"/><path class="cls-2" d="M157.92,34.56c-4.67-4.81-7.76-4.82-12.45,0C128.78,51.78,112,68.92,94.64,85.47c-6.6,6.29-10,11.75-4.31,20.27,1.82,2.73,2.31,6.41,3.14,9.72,3.26,13,1.58,17.26-10,24-5.15,3-10.85,5.09-16,8.11-12.95,7.56-21.8,18.06-22.78,29.14-.1,14.68,3.09,21.34,10.1,22,6.29.63,13.37.32,19.12-2,13.14-5.28,22.16-14.93,28-28.39,9-21,16.32-23.24,37.43-14.4a19.59,19.59,0,0,1,3.85,1.85c4.63,3.29,8.12,2,11.89-1.88q27.28-27.83,55-55.25c4.56-4.5,4.31-7.57-.13-11.94Q183.62,60.94,157.92,34.56ZM71.58,179.23c-.12,2.32-3,4.78-6.87,4.78s-6.29-1.65-6.9-4.57c-.43-2,.08-7.14,6.93-8.57C71.59,172.3,71.73,176.45,71.58,179.23Zm78.86-34L98.66,94.59l8.72-7.94,49.08,50.85c.63.2.63,1.33,1.59,1.09C154.89,141.58,153,142.74,150.44,145.19Zm26.81-34.09c-1.83,1.54-5.91,2.92-7.61,2.07-1.59-2.3-.78-4.26-.52-6.31,1.27-9.83-.73-12-10.28-10.5-7.53,1.16-8.78-.54-7-7.61,1.33-5.16,4.31-14,2.22-15.94-2-2.51-10.18,3.46-15.41,4.48-3.51.68-8.92,1.15-10.9,0-1.87-1.47,1.71-7,3.79-9.46,4.78-5.65,10.4-10.58,15.54-15.94,2.83-3,5.27-3.81,8.6-.5,13.53,13.48,27.22,26.8,41.71,41C189.83,99.58,183.77,105.62,177.25,111.1Z"/></g></svg>