<svg xmlns="http://www.w3.org/2000/svg" viewBox="0 0 250 250"><defs><style>.cls-1{fill:#e1490f;}.cls-2{fill:#fff;}</style></defs><title>icon-phone-support</title><g id="Layer_3" data-name="Layer 3"><rect class="cls-1" x="84" y="61" width="81" height="121"/><circle class="cls-1" cx="124.52" cy="201.7" r="14.21"/><path class="cls-1" d="M125,0A125,125,0,1,0,250,125,125,125,0,0,0,125,0Zm56,201.7A20.61,20.61,0,0,1,160.62,222H88.43A20.65,20.65,0,0,1,68,201.7V49.29A20.64,20.64,0,0,1,88.43,29h72.19A20.6,20.6,0,0,1,181,49.29Z"/><path class="cls-2" d="M160.62,29H88.43A20.64,20.64,0,0,0,68,49.29V201.7A20.65,20.65,0,0,0,88.43,222h72.19A20.61,20.61,0,0,0,181,201.7V49.29A20.6,20.6,0,0,0,160.62,29Zm-36.1,186.91a14.21,14.21,0,1,1,14.21-14.21A14.21,14.21,0,0,1,124.52,215.91ZM165,182H84V61h81Z"/></g></svg>