<svg xmlns="http://www.w3.org/2000/svg" viewBox="0 0 250 250"><defs><style>.cls-1{fill:#e1490f;}.cls-2{fill:#fff;}</style></defs><title>icon-themed-emails_1</title><g id="Layer_3" data-name="Layer 3"><path class="cls-1" d="M125,0A125,125,0,1,0,250,125,125,125,0,0,0,125,0ZM113,42.87,124.7,31l11.69,11.89V43H113ZM65,48H183v53l-39.75,41H107L65,101ZM55,101l.76,1,40,39.83L55,182.69Zm-.48,93,46.67-46h46.67l46.67,46ZM195,182.69l-41-40.84L193.77,102l1.23-1Z"/><path class="cls-1" d="M122,113.4c3.82-8.84,6.88-9.8,15.79-6.07a8.35,8.35,0,0,1,1.62.78c2,1.39,3.42.83,5-.79Q155.88,95.57,167.57,84c1.92-1.89,1.81-3.19-.06-5Q156.44,68.09,145.6,57c-2-2-3.28-2-5.25,0-7,7.26-14.13,14.49-21.44,21.47-2.78,2.66-4.21,5-1.82,8.55a13.07,13.07,0,0,1,1.32,4.1c1.38,5.48.67,7.28-4.21,10.13-2.18,1.27-4.58,2.15-6.75,3.42-5.46,3.19-9.2,7.62-9.61,12.29,0,6.19,1.3,9,4.26,9.3a17.78,17.78,0,0,0,8.06-.84C115.7,123.15,119.51,119.08,122,113.4ZM134.49,71c2-2.39,4.38-4.47,6.55-6.73,1.2-1.24,2.23-1.6,3.63-.21,5.71,5.69,11.48,11.31,17.59,17.3-3.21,3-5.76,5.55-8.51,7.86-.77.65-2.5,1.23-3.21.88-.67-1-.33-1.8-.22-2.67.54-4.14-.31-5-4.33-4.42-3.18.48-3.71-.23-2.94-3.21.56-2.18,1.82-5.91.94-6.72-.87-1.06-4.3,1.46-6.5,1.89-1.48.28-3.77.48-4.6,0C132.1,74.39,133.61,72.05,134.49,71Zm-10.21,7.91L145,100.38c.27.08.27.56.67.45-1.33,1.27-2.12,1.75-3.21,2.79L120.6,82.28Zm-15.09,39c-.06,1-1.25,2-2.9,2s-2.65-.69-2.91-1.93c-.18-.86,0-3,2.92-3.61C109.19,115.05,109.25,116.8,109.19,118Z"/><polygon class="cls-2" points="55.76 102.02 55 101.02 55 182.69 95.72 141.85 55.76 102.02"/><polygon class="cls-2" points="154.04 141.85 195 182.69 195 101.02 193.77 102.02 154.04 141.85"/><polygon class="cls-2" points="136.39 42.93 124.7 31.04 113 42.87 113 43 136.4 43 136.39 42.93"/><polygon class="cls-2" points="101.19 148 54.52 194 194.53 194 147.86 148 101.19 148"/><path class="cls-2" d="M143.25,142,183,101V48H65v53l42,41ZM102.1,126.22c-3-.3-4.3-3.11-4.26-9.3.41-4.67,4.15-9.1,9.61-12.29,2.17-1.27,4.57-2.15,6.75-3.42,4.88-2.85,5.59-4.65,4.21-10.13a13.07,13.07,0,0,0-1.32-4.1c-2.39-3.59-1-5.89,1.82-8.55,7.31-7,14.4-14.21,21.44-21.47,2-2,3.28-2,5.25,0q10.82,11.15,21.91,22c1.87,1.84,2,3.14.06,5q-11.71,11.55-23.19,23.31c-1.59,1.62-3.06,2.18-5,.79a8.35,8.35,0,0,0-1.62-.78c-8.91-3.73-12-2.77-15.79,6.07-2.45,5.68-6.26,9.75-11.8,12A17.78,17.78,0,0,1,102.1,126.22Z"/><path class="cls-2" d="M106.3,114.45c-2.88.6-3.1,2.75-2.92,3.61.26,1.24,1.31,1.93,2.91,1.93s2.84-1,2.9-2C109.25,116.8,109.19,115.05,106.3,114.45Z"/><path class="cls-2" d="M145.65,100.83c-.4.11-.4-.37-.67-.45l-20.7-21.45-3.68,3.35,21.84,21.34C143.53,102.58,144.32,102.1,145.65,100.83Z"/><path class="cls-2" d="M137.49,75c2.2-.43,5.63-2.95,6.5-1.89.88.81-.38,4.54-.94,6.72-.77,3-.24,3.69,2.94,3.21,4-.62,4.87.28,4.33,4.42-.11.87-.45,1.7.22,2.67.71.35,2.44-.23,3.21-.88,2.75-2.31,5.3-4.86,8.51-7.86-6.11-6-11.88-11.61-17.59-17.3-1.4-1.39-2.43-1-3.63.21-2.17,2.26-4.54,4.34-6.55,6.73-.88,1-2.39,3.37-1.6,4C133.72,75.47,136,75.27,137.49,75Z"/></g></svg>