<svg xmlns="http://www.w3.org/2000/svg" viewBox="0 0 250 250"><defs><style>.cls-1{fill:#e1490f;}.cls-2{fill:#fff;}</style></defs><title>icon-auto-hide-dates</title><g id="Layer_3" data-name="Layer 3"><path class="cls-1" d="M73.38,108.41A131.89,131.89,0,0,0,46.19,126.9c7.17,6.57,22.18,18.9,41.24,27.22a51.93,51.93,0,0,1-14-45.7Z"/><path class="cls-1" d="M177.48,117.52a52.33,52.33,0,0,1-15.56,37.28,159.15,159.15,0,0,0,44.75-27.89c-5.52-5.05-16.39-12.7-30.16-19.27A53.49,53.49,0,0,1,177.48,117.52Z"/><path class="cls-1" d="M98.82,117.52A26.13,26.13,0,0,1,110.18,96a113.41,113.41,0,0,0-20.75,5.43,39,39,0,0,0,30,54.74l4.91-12.5A26.17,26.17,0,0,1,98.82,117.52Z"/><path class="cls-1" d="M125,0A125,125,0,1,0,250,125,125,125,0,0,0,125,0Zm-7.22,203H101.34l10.87-28c-45.64-6.92-84.35-47.88-84.35-47.88l.05-.09-.05-.06S60.7,69,125,69c9.84,0,18.89,1.93,27.24,4.24L162.84,47h16.24Zm20.65-28.5,10.08-25.8a38.94,38.94,0,0,0,15.57-31.17,38.07,38.07,0,0,0-.67-6.88l11.32-29c31.38,17.14,47.42,45.23,47.42,45.23S183.79,167.3,138.43,174.5Z"/><path class="cls-1" d="M114.53,134.1l4.8-4.8a13,13,0,0,1-7.18-10l-5.31,5.31A19.77,19.77,0,0,0,114.53,134.1Z"/><path class="cls-2" d="M174.72,81.68l-11.32,29a38.07,38.07,0,0,1,.67,6.88,38.94,38.94,0,0,1-15.57,31.17l-10.08,25.8c45.37-7.2,83.71-47.59,83.71-47.59S206.1,98.82,174.72,81.68Zm-12.8,73.13a52.33,52.33,0,0,0,15.56-37.28,53.49,53.49,0,0,0-1-9.88c13.77,6.57,24.63,14.21,30.16,19.27A159.15,159.15,0,0,1,161.92,154.81Z"/><path class="cls-2" d="M162.84,47,152.26,73.23A101.37,101.37,0,0,0,125,69.11c-62.89,0-95.68,55.46-97.1,57.9l-.05.09s38.71,41,84.35,47.88h0l-10.88,28h16.44L179.09,47Zm-43.51,82.3-4.8,4.8a19.77,19.77,0,0,1-7.69-9.53l5.31-5.31A13,13,0,0,0,119.33,129.3Zm-73.14-2.4a131.89,131.89,0,0,1,27.19-18.49,51.93,51.93,0,0,0,14,45.7C68.37,145.8,53.36,133.47,46.19,126.9Zm73.23,29.25a39,39,0,0,1-30-54.74A113.41,113.41,0,0,1,110.18,96a26.13,26.13,0,0,0,14.15,47.67Z"/></g></svg>