<svg xmlns="http://www.w3.org/2000/svg" viewBox="0 0 250 250"><defs><style>.cls-1{fill:#e1490f;}.cls-2{fill:#fff;}</style></defs><title>icon-calendar-sync</title><g id="Layer_3" data-name="Layer 3"><path class="cls-1" d="M125,0A125,125,0,1,0,250,125,125,125,0,0,0,125,0ZM57.29,143.52h0L56.9,142q-.56-2.17-1-4.37-.21-1.1-.38-2.2a71.37,71.37,0,0,1-.88-11.14A69.91,69.91,0,0,1,68,83.09,70.82,70.82,0,0,1,121,54q2.1-.13,4.22-.13A70.5,70.5,0,0,1,162.6,64.58l7.34-10.15a3.61,3.61,0,0,1,2.66-1.68h.27A3.39,3.39,0,0,1,176,55.41l10.9,35.52a3.17,3.17,0,0,1,.1,1c0,.12,0,.23,0,.35h0a3.92,3.92,0,0,1-4,4L146,97h-.1c-2.46,0-3.58-1.64-3.58-3.13a4.07,4.07,0,0,1,.83-2.34l7-9.71A49.36,49.36,0,0,0,75.8,124.37a50,50,0,0,0,2.64,16l.75,2.23h0l-2.33.38-1.13.18-.14,0h-.14l-16.57.28Zm125.24,22.4a70.5,70.5,0,0,1-94.61,18.51l-7.34,10.13a3.56,3.56,0,0,1-2.92,1.71,3.41,3.41,0,0,1-3.16-2.67l-11-35.54a4.63,4.63,0,0,1-.21-1.36,4,4,0,0,1,4.1-4l37.18-.64h.11c2.45,0,3.56,1.61,3.56,3.11a4,4,0,0,1-.83,2.33l-7,9.71a49.36,49.36,0,0,0,74.33-42.55,50.14,50.14,0,0,0-2.56-15.81l-.86-2.58,2.72,0,17.73-.31,1.59,0,.38,1.54a71.79,71.79,0,0,1,2.12,17.3A69.84,69.84,0,0,1,182.53,165.92Z"/><path class="cls-2" d="M75.59,143.21l.14,0,1.13-.18,2.33-.38h0l-.75-2.23a50,50,0,0,1-2.64-16h0a49,49,0,0,1,9.35-28.87,49.36,49.36,0,0,1,65-13.68h0l-7,9.71a4.07,4.07,0,0,0-.83,2.34c0,1.5,1.12,3.13,3.58,3.13h.1L183,96.34a3.92,3.92,0,0,0,4-4h0c0-.12,0-.23,0-.35a3.17,3.17,0,0,0-.1-1l-11-35.53a3.36,3.36,0,0,0-3.12-2.67h-.24a3.61,3.61,0,0,0-2.66,1.68L162.6,64.58h0A70.49,70.49,0,0,0,125.2,53.84q-2.12,0-4.22.13A70.82,70.82,0,0,0,68,83.09a69.91,69.91,0,0,0-13.32,41.19,71.37,71.37,0,0,0,.88,11.14q.17,1.11.38,2.2.42,2.2,1,4.37l.39,1.53h0l1.58,0,16.57-.28Z"/><path class="cls-2" d="M193.34,105.89l-1.59,0-17.73.31-2.72,0,.86,2.58a50.14,50.14,0,0,1,2.56,15.81,48.92,48.92,0,0,1-9.34,28.86,49.36,49.36,0,0,1-65,13.68l7-9.71a4,4,0,0,0,.83-2.33c0-1.5-1.12-3.11-3.56-3.11h-.11l-37.18.64a4,4,0,0,0-4.1,4,4.63,4.63,0,0,0,.21,1.36l11,35.54a3.41,3.41,0,0,0,3.16,2.67,3.56,3.56,0,0,0,2.92-1.71l7.34-10.13a70.5,70.5,0,0,0,107.93-59.7,71.79,71.79,0,0,0-2.12-17.3Z"/></g></svg>