<svg xmlns="http://www.w3.org/2000/svg" viewBox="0 0 250 250"><defs><style>.cls-1{fill:#e1490f;}.cls-2{fill:#fff;}</style></defs><title>icon-no-youknowwhat-licenses</title><g id="Layer_3" data-name="Layer 3"><path class="cls-1" d="M66,156.08v0Z"/><path class="cls-1" d="M191.8,125A66.66,66.66,0,0,0,89.44,68.52L126,105.11v37.73L108.5,96.48l-1-2.48H89.61l-1,2.46-.42,1.09L85,105.9v-.06l-2.13-2.13L68.52,89.38A66.28,66.28,0,0,0,58.19,125,65.47,65.47,0,0,0,66,156.06v0a67.23,67.23,0,0,0,59,35.65A66.53,66.53,0,0,0,143.86,189l.81-.26a67.66,67.66,0,0,0,15.94-7.4h0L135.42,156h18.07a29.45,29.45,0,0,0,12.38-2.34,34.07,34.07,0,0,0,3.12-1.49l.86-.52.61-.41c.31-.21.62-.42.92-.65h0l10,10c.76-1.19,1.56-2.41,2.24-3.65A66.25,66.25,0,0,0,191.8,125Zm-79.13,27-4.14-12H88.08l-4.29,12H71.69L92.37,98H104.7l20.45,54Zm64.11-16.35a24,24,0,0,1-4.63,8.67c-.12.14-.26.27-.39.4q-.5.57-1,1.09l-.33.33a22,22,0,0,1-6,3.89,26.31,26.31,0,0,1-10.91,2H130V98h23.49a28.25,28.25,0,0,1,9.84,1.56,21.27,21.27,0,0,1,7.89,5,18.33,18.33,0,0,1,1.26,1.43,23.85,23.85,0,0,1,3.95,6.94,33.72,33.72,0,0,1,1.88,11.79A37.5,37.5,0,0,1,176.78,135.65Z"/><path class="cls-1" d="M125,0A125,125,0,1,0,250,125,125,125,0,0,0,125,0Zm0,216a91,91,0,1,1,91-91A91.09,91.09,0,0,1,125,216Z"/><path class="cls-2" d="M125,34a91,91,0,1,0,91,91A91.09,91.09,0,0,0,125,34ZM183.66,156.9q-1.05,1.92-2.22,3.76l-.12-.12-10-10h0c-.3.23-.61.44-.92.65l-.61.41-.86.52c-.93.54-1.91,1-2.93,1.49A30.35,30.35,0,0,1,153.49,156H135.42l25.19,25.3h0l0,0a66.47,66.47,0,0,1-16,7.37c-.27.08-.54.34-.81.42A66.56,66.56,0,0,1,125,192h0c-25.58,0-47.83-14.83-59.07-35.81h0l-.08-.06A66.35,66.35,0,0,1,58,125v0A66.29,66.29,0,0,1,68.47,89.33l0,0,14.36,14.34L85,105.82l3.2-8.28.42-1.09,1-2.46h17.86l1,2.48L126,142.84V105.11L89.44,68.52l0,0A66.35,66.35,0,0,1,125,58h0a66.83,66.83,0,0,1,58.64,98.9Z"/><path class="cls-2" d="M146,125.14V138h6.65a11.36,11.36,0,0,0,3.76-.54,7.09,7.09,0,0,0,1.31-.56h0Z"/><path class="cls-2" d="M92.37,98,71.69,152h12.1l4.29-12h20.45l4.14,12h12.48L104.7,98Zm-1.15,33,7.12-20h.15l6.89,20Z"/><polygon class="cls-1" points="98.34 111 91.22 131 105.39 131 98.5 111 98.34 111"/><path class="cls-2" d="M172.49,106a18.33,18.33,0,0,0-1.26-1.43,21.27,21.27,0,0,0-7.89-5A28.25,28.25,0,0,0,153.49,98H130v54h23.49a26.3,26.3,0,0,0,10.91-2,22.47,22.47,0,0,0,6-3.89l.33-.33q.54-.52,1-1.09c.12-.14.26-.26.39-.4a24,24,0,0,0,4.63-8.67,37.5,37.5,0,0,0,1.53-11,33.72,33.72,0,0,0-1.88-11.79A23.85,23.85,0,0,0,172.49,106ZM166,125.84h0a22.44,22.44,0,0,1-1,7.62c-.22.59-.45,1.13-.7,1.66a11.67,11.67,0,0,1-2.22,3.37,11.16,11.16,0,0,1-2.07,1.66,11,11,0,0,1-2.3,1.09,15.43,15.43,0,0,1-5.06.76H142V108h8.51a19.59,19.59,0,0,1,7.47,1.18,11.56,11.56,0,0,1,4.86,3.54,14.6,14.6,0,0,1,2.5,5.68,31.93,31.93,0,0,1,.66,7.43Z"/><path class="cls-1" d="M162.77,112.72a11.44,11.44,0,0,0-4.83-3.54,19.4,19.4,0,0,0-7.43-1.18H142v34h10.65a15.43,15.43,0,0,0,5.06-.76,11.09,11.09,0,0,0,4.37-2.74,11.67,11.67,0,0,0,2.22-3.37c.24-.53.48-1.08.7-1.68a22.39,22.39,0,0,0,1-7.61h0a31.93,31.93,0,0,0-.66-7.43A14.68,14.68,0,0,0,162.77,112.72Zm-5,24.19,0,0a6.51,6.51,0,0,1-1.3.53,11.36,11.36,0,0,1-3.76.54H146V125.14l11.75,11.74h0Z"/></g></svg>