<svg xmlns="http://www.w3.org/2000/svg" viewBox="0 0 250 250"><defs><style>.cls-1{fill:#e1490f;}.cls-2{fill:#fff;}</style></defs><title>icon-multiple-administrators</title><g id="Layer_3" data-name="Layer 3"><path class="cls-1" d="M125,0A125,125,0,1,0,250,125,125,125,0,0,0,125,0Zm57.61,96.78a19.33,19.33,0,1,1-19.33,19.33A19.33,19.33,0,0,1,182.61,96.78ZM126.18,77.44a23.75,23.75,0,1,1-23.75,23.75A23.75,23.75,0,0,1,126.18,77.44ZM67.11,96.78A19.33,19.33,0,0,1,73,134.53a32,32,0,0,0-10.31.36,19.32,19.32,0,0,1,4.47-38.12ZM78.94,171.1l.1.12c-12.35,0-25.4,0-38.32,0-3.75,0-5.86-.55-6.65-1.69s-.51-3.25.76-6.55C40.33,148.74,49,140.64,62,137.48l.11,0a23.75,23.75,0,0,1,6.88-.85,20.24,20.24,0,0,1,5.47.62,39.88,39.88,0,0,1,13.07,6,71.85,71.85,0,0,0-8.06,15.6C78,162.74,76.59,167.66,78.94,171.1Zm90-3.07c-.91,1.33-3.86,2-9,2-21.31,0-45.45.07-69.14,0-4.33,0-6.92-.6-7.71-1.75-.54-.78-.78-2.74,1.08-7.64C91.08,142.43,102,132.08,118.41,128l.25-.07a29.38,29.38,0,0,1,8.51-1,24.94,24.94,0,0,1,6.78.77c16.25,4.41,27.23,14.53,33.55,30.94C169.37,163.52,169.86,166.68,168.94,168Zm46.94,1.3c-.87,1.27-3.3,1.87-7.66,1.88-11.07,0-23.14,0-35.45,0,.1-.13.2-.25.29-.38,2.53-3.7,1-9.16-.91-14a61.59,61.59,0,0,0-7.88-14.56,37.66,37.66,0,0,1,11.51-4.8l.11,0a23.75,23.75,0,0,1,6.88-.85,20.24,20.24,0,0,1,5.47.62c12.88,3.45,21.57,11.38,26.58,24.22C216.42,165.53,216.75,168,215.87,169.32Z"/><path class="cls-2" d="M188.24,137.21a20.24,20.24,0,0,0-5.47-.62,23.75,23.75,0,0,0-6.88.85l-.11,0a37.66,37.66,0,0,0-11.51,4.8,61.59,61.59,0,0,1,7.88,14.56c1.87,4.85,3.44,10.32.91,14-.09.13-.2.25-.29.38,12.3,0,24.37,0,35.45,0,4.36,0,6.79-.6,7.66-1.88s.54-3.79-1.05-7.89C209.82,148.59,201.12,140.66,188.24,137.21Z"/><circle class="cls-2" cx="182.61" cy="116.11" r="19.33"/><path class="cls-2" d="M62.64,134.9A32,32,0,0,1,73,134.53a19.36,19.36,0,1,0-10.31.36Z"/><path class="cls-2" d="M87.53,143.25a39.88,39.88,0,0,0-13.07-6,20.24,20.24,0,0,0-5.47-.62,23.75,23.75,0,0,0-6.88.85l-.11,0C49,140.64,40.33,148.74,34.84,163c-1.27,3.3-1.52,5.44-.76,6.55s2.89,1.68,6.65,1.69c12.92,0,26,0,38.32,0l-.1-.12c-2.36-3.43-1-8.35.53-12.25A71.85,71.85,0,0,1,87.53,143.25Z"/><path class="cls-2" d="M133.94,127.7a24.94,24.94,0,0,0-6.78-.77,29.38,29.38,0,0,0-8.51,1l-.25.07c-16.44,4-27.33,14.38-34.26,32.57-1.87,4.9-1.62,6.86-1.08,7.64.79,1.15,3.38,1.74,7.71,1.75,23.69.07,47.84,0,69.14,0,5.16,0,8.1-.66,9-2s.43-4.5-1.45-9.39C161.17,142.22,150.19,132.1,133.94,127.7Z"/><circle class="cls-2" cx="126.18" cy="101.2" r="23.75"/></g></svg>