<svg id="Layer_1" data-name="Layer 1" xmlns="http://www.w3.org/2000/svg" viewBox="0 0 251.69 251.69"><defs><style>.cls-1{fill:#fff;}.cls-2{fill:#e1490f;}</style></defs><title>signup-step-4</title><path class="cls-1" d="M125.84,245.84a120,120,0,1,1,120-120A120.14,120.14,0,0,1,125.84,245.84Z"/><path class="cls-2" d="M125.84,10.84a115,115,0,0,1,81.32,196.32A115,115,0,1,1,44.53,44.53a114.25,114.25,0,0,1,81.32-33.68m0-10a125,125,0,1,0,125,125,125,125,0,0,0-125-125Z"/><path class="cls-1" d="M185.31,69h-23v6.18c0,3.31-3.09,6-6.39,6s-6.39-2.67-6.39-6V69H102.18v6.18a5.76,5.76,0,1,1-11.51,0V69H66.38v24.3H185.31Z"/><rect class="cls-1" x="155.9" y="116.31" width="11.51" height="12.79"/><rect class="cls-1" x="120.09" y="152.12" width="11.51" height="12.79"/><rect class="cls-1" x="155.9" y="152.12" width="11.51" height="12.79"/><rect class="cls-1" x="84.28" y="152.12" width="11.51" height="12.79"/><rect class="cls-1" x="120.09" y="116.31" width="11.51" height="12.79"/><rect class="cls-1" x="84.28" y="116.31" width="11.51" height="12.79"/><path class="cls-1" d="M185.31,98.41H66.38v83.13H185.31ZM102.18,170H77.89V147h24.3Zm0-35.81H77.89v-23h24.3ZM138,170h-24.3V147H138Zm0-35.81h-24.3v-23H138ZM173.8,170H149.5V147h24.3Zm0-35.81H149.5v-23h24.3Z"/><path class="cls-2" d="M190.71,57.49H162.29c0-3.84-3.4-6-6.71-6a5.73,5.73,0,0,0-6.07,6H101.77a6,6,0,0,0-12,0H60.67c-3.71,0-5.81,2.76-5.81,6.48V188c0,3.71,2.1,6.3,5.81,6.3h130c3.71,0,7.39-2.6,7.39-6.3V64C198.1,60.25,194.42,57.49,190.71,57.49ZM66.38,98.41H185.31v83.13H66.38Zm0-29.41h24.3v6.18a5.76,5.76,0,1,0,11.51,0V69H149.5v6.18c0,3.31,3.09,6,6.39,6s6.39-2.67,6.39-6V69h23v24.3H66.38Z"/><path class="cls-2" d="M77.89,134.22h24.3v-23H77.89Zm6.39-17.9H95.79V129.1H84.28Z"/><path class="cls-2" d="M113.69,134.22H138v-23h-24.3Zm6.39-17.9H131.6V129.1H120.09Z"/><path class="cls-2" d="M149.5,134.22h24.3v-23H149.5Zm6.39-17.9h11.51V129.1H155.9Z"/><path class="cls-2" d="M77.89,170h24.3V147H77.89Zm6.39-17.9H95.79v12.79H84.28Z"/><path class="cls-2" d="M113.69,170H138V147h-24.3Zm6.39-17.9H131.6v12.79H120.09Z"/><path class="cls-2" d="M149.5,170h24.3V147H149.5Zm6.39-17.9h11.51v12.79H155.9Z"/></svg>