<svg id="Layer_1" data-name="Layer 1" xmlns="http://www.w3.org/2000/svg" viewBox="0 0 251.69 251.69"><defs><style>.cls-1{fill:#fff;}.cls-2{fill:#e1490f;}.cls-3{fill:#f58a1f;}</style></defs><title>signup-step-2</title><path class="cls-1" d="M125.84,245.84a120,120,0,1,1,120-120A120.14,120.14,0,0,1,125.84,245.84Z"/><path class="cls-2" d="M125.84,10.84a115,115,0,0,1,81.32,196.32A115,115,0,1,1,44.53,44.53a114.25,114.25,0,0,1,81.32-33.68m0-10a125,125,0,1,0,125,125,125,125,0,0,0-125-125Z"/><path class="cls-2" d="M191.75,102.23,171.84,87V64.33c0-3.26-3.29-5.56-6.55-5.56h-32l-5.14-4a5.9,5.9,0,0,0-8.34.08l-5.15,4h-32c-3.26,0-6.74,2.3-6.74,5.56V86.91L56.5,101.75a10.63,10.63,0,0,0-3.59,7.48v79a6.26,6.26,0,0,0,6.15,6.06H188.89a6.1,6.1,0,0,0,6-6.06V108.59C194.86,105.09,191.75,102.23,191.75,102.23Zm-67.78,42,52.28,38.55H71.71ZM145.33,150l38-29.09V179Zm-63-84.85h83.13v60.36l-26.74,19.66-10.51-8a5.94,5.94,0,0,0-8.38,0l-10.67,8L82.32,125.52ZM75.93,99.94v21.23l-10.23-8.71v-3.87Zm-10.23,21,38,29.07-38,29Zm117.66-8.47-11.51,8.71V99.87l11.51,8.63Z"/><path class="cls-3" d="M136,126.83l.63-.33-1.88-5.05-.83.47A24.34,24.34,0,0,1,122,124.65c-12,0-20-8.47-20-21.09,0-15.13,9.89-26.11,23.52-26.11,11.61,0,18.82,7.43,18.82,19.38,0,5.23-1.48,9.69-4.08,12.23a5.78,5.78,0,0,1-3.85,1.8,1.76,1.76,0,0,1-1.43-.65c-.62-.78-1.17-2.71-.23-7.47l2.88-15.31-.58-.26a22.35,22.35,0,0,0-9-1.78,20.06,20.06,0,0,0-20,20c0,7.25,4.82,11,9.58,11a13,13,0,0,0,11-5.87,7,7,0,0,0,1.8,3.88,6.69,6.69,0,0,0,4.92,2c7.58,0,15.25-6.91,15.25-20.12,0-14.28-10-24.26-24.42-24.26-17.34,0-30.42,13.74-30.42,32,0,15.14,10.68,26.12,25.39,26.12A30.22,30.22,0,0,0,136,126.83Zm-16.44-16.38c-4.1,0-4.54-3.74-4.54-5.35,0-7.47,5.53-13.79,12.08-13.79a13.65,13.65,0,0,1,3.12.35l-1.57,8.43C127.76,105,123.68,110.45,119.53,110.45Z"/></svg>