<svg id="Layer_1" data-name="Layer 1" xmlns="http://www.w3.org/2000/svg" viewBox="0 0 251.69 251.69"><defs><style>.cls-1{fill:#fff;}.cls-2{fill:#e1490f;}</style></defs><title>signup-step-1</title><path class="cls-1" d="M125.84,245.84a120,120,0,1,1,120-120A120.14,120.14,0,0,1,125.84,245.84Z"/><path class="cls-2" d="M125.84,10.84a115,115,0,0,1,81.32,196.32A115,115,0,1,1,44.53,44.53a114.25,114.25,0,0,1,81.32-33.68m0-10a125,125,0,1,0,125,125,125,125,0,0,0-125-125Z"/><path class="cls-2" d="M189,92.89v-36A5.89,5.89,0,0,0,183.11,51H69.4a5.89,5.89,0,0,0-5.92,5.92v36a5.89,5.89,0,0,0,5.92,5.92h11v17.82c-12,0-17.93,8-17.93,17.93V152.5c0,23.07,29.41,42,52.49,42h59.78c13.21,0,13.27-10.88,13.27-24.1V118.3c0-3.29-2.45-7.11-6-7.65L116.93,98.81h66.18A5.89,5.89,0,0,0,189,92.89Zm-66.78,19.55v22.3h6V113.58l12,2.27v18.89h6V116.93l12,2.27v15.54h6V120.33l12,2.28v47.82c0,6.58,2,12.14-7.3,12.14H115c-16.5,0-40.54-13.57-40.54-30.07V134.56c0-2.39,6.88-4.3,12-5.26v17.4h6v-60a6,6,0,0,1,12,0v48h6V110.17Zm60.8-19.61H116.27v-6.1a17.93,17.93,0,0,0-35.87,0v6.1H69.46V57H183.05Z"/><path class="cls-1" d="M168.76,182.57H115c-16.5,0-40.54-13.57-40.54-30.07V134.56c0-2.39,6.88-4.3,12-5.26v17.4h6v-60a6,6,0,0,1,12,0v48h6V110.17l12,2.27v22.3h6V113.58l12,2.27v18.89h6V116.93l12,2.27v15.54h6V120.33l12,2.28v47.82C176.06,177,178,182.57,168.76,182.57Z"/><path class="cls-1" d="M183.05,57V92.83H116.27v-6.1a17.93,17.93,0,0,0-35.87,0v6.1H69.46V57Z"/></svg>