<svg id="Layer_1" data-name="Layer 1" xmlns="http://www.w3.org/2000/svg" viewBox="0 0 167 167"><defs><style>.cls-1{fill:#fff;}.cls-2{fill:#acc034;}</style></defs><title>icon-checkbox</title><path class="cls-1" d="M149,0H18A18,18,0,0,0,0,18V149a18,18,0,0,0,18,18H149a18,18,0,0,0,18-18V18A18,18,0,0,0,149,0Z"/><path class="cls-2" d="M149,12H18a6,6,0,0,0-6,6V149a6,6,0,0,0,6,6H149a6,6,0,0,0,6-6V18A6,6,0,0,0,149,12Zm-7,131H24V24H142Z"/><path class="cls-2" d="M126.55,59.07l-7.4-7.39a6.71,6.71,0,0,0-9.5,0L72,89.27,59.89,77.13a6.71,6.71,0,0,0-9.52,0L43,84.52A6.74,6.74,0,0,0,43,94L72,123.09l54.5-54.51A6.7,6.7,0,0,0,126.55,59.07ZM72,114.63,46.69,89.27l8.45-8.45L72,97.73,114.4,55.37l8.46,8.47Z"/></svg>