<svg id="Layer_1" data-name="Layer 1" xmlns="http://www.w3.org/2000/svg" xmlns:xlink="http://www.w3.org/1999/xlink" viewBox="0 0 198 256"><defs><style>.cls-1{fill:none;}.cls-2{clip-path:url(#clip-path);}.cls-3{clip-path:url(#clip-path-2);}.cls-4{fill:url(#linear-gradient);}.cls-5{fill:#fff;}.cls-6{fill:#242425;}.cls-7{fill:#a7be3a;}</style><clipPath id="clip-path"><rect class="cls-1" x="1.7" y="3.42" width="195.26" height="252.58"/></clipPath><clipPath id="clip-path-2"><polyline class="cls-1" points="39.23 171.34 39.23 181.45 92.31 190.72 101.58 161.23 164.78 106.45 177.43 71.06 141.19 20.5 85.57 11.23 45.12 24.71 26.59 43.26 18.16 80.33 39.23 141 38.38 168.81"/></clipPath><linearGradient id="linear-gradient" x1="0.06" y1="255.91" x2="1.2" y2="255.91" gradientTransform="matrix(167.82, 0, 0, -167.82, -11.9, 43048.27)" gradientUnits="userSpaceOnUse"><stop offset="0" stop-color="#fef6d3"/><stop offset="0.51" stop-color="#fff29b"/><stop offset="0.84" stop-color="#fff07c"/><stop offset="1" stop-color="#fff07c"/></linearGradient></defs><title>Artboard 1</title><g id="Lightbulb_Only" data-name="Lightbulb Only"><g class="cls-2"><g class="cls-3"><rect class="cls-4" x="-19.75" y="-12.86" width="235.08" height="227.68" transform="translate(-38.55 135.18) rotate(-60)"/></g><g class="cls-2"><path class="cls-5" d="M49.93,173c9.05-23.8-6.29-46.25-15.41-67.4-4.49-10.43-8-21.16-5.69-32.53C30.9,62.72,36.9,53.39,44.48,46.2,63.15,28.49,89.5,24,114,29.75c23.34,5.52,46.61,21.83,54.54,45.19,2.23,6.57,3.06,14.14,2,20.15q-.19,1-.44,1.94.4-1.39-.14.31-.32.92-.68,1.83c-1.15,3,1-1.85-.42,1-.59,1.16-1.27,2.27-2,3.37l-.07.11c-.58.81-1.21,1.58-1.83,2.35-6.38,7.89-17.38,15.12-27,21.42-20.32,13.3-47.28,30.34-44.87,58.41.38,4.45,3.58,6.83,7.79,4.49s7.91-8.09,7.49-13c-.08-.91-.13-1.82-.15-2.73,0-.13.2-3,0-1.14.09-.85.27-1.68.45-2.52.57-2.72-.66,1.89.25-.72.16-.46,1.33-3,.13-.54.37-.77.81-1.51,1.24-2.24,1.47-2.49-1.38,1.81.34-.56.7-1,1.47-1.88,2.25-2.79,3.33-3.88,11.5-10,17.18-13.81,15.48-10.4,32.31-19.89,44-34.85,14.49-18.61,15.33-41.88,5.19-62.79-11.06-22.83-35.55-37-59.4-42.62C77.43,0,33.56,24.6,17.61,64.52,13.88,73.84,11.89,84.29,13,94.31c1.09,9.85,4.6,19,8.62,28S30.21,140,33.74,149.16c2.7,7,5.32,15.85,2.76,22.58-1.22,3.21-1.88,9.85,3.07,10.32s8.87-5.14,10.36-9.07"/><path class="cls-6" d="M45.57,168.63c9.05-23.8-6.29-46.25-15.41-67.4-4.49-10.43-8-21.16-5.69-32.53C26.54,58.36,32.54,49,40.12,41.84c18.67-17.71,45-22.24,69.48-16.44,23.34,5.52,46.61,21.83,54.54,45.19,2.23,6.57,3.06,14.14,2,20.15q-.19,1-.44,1.94.4-1.39-.14.31-.32.92-.68,1.83c-1.15,3,1-1.85-.42,1-.59,1.16-1.27,2.27-2,3.37l-.07.11c-.58.81-1.21,1.58-1.83,2.35-6.38,7.89-17.38,15.12-27,21.42-20.32,13.3-47.28,30.34-44.87,58.41.38,4.45,3.58,6.83,7.79,4.49s7.91-8.09,7.49-13c-.08-.91-.13-1.82-.15-2.73,0-.13.2-3,0-1.14.09-.85.27-1.68.45-2.52.57-2.72-.66,1.89.25-.72.16-.46,1.33-3,.13-.54.37-.77.81-1.51,1.24-2.24,1.47-2.49-1.38,1.81.34-.56.7-1,1.47-1.88,2.25-2.79,3.33-3.88,11.5-10,17.18-13.81,15.48-10.4,32.31-19.89,44-34.85,14.49-18.61,15.33-41.88,5.19-62.79-11.06-22.83-35.55-37-59.4-42.62C73.07-4.36,29.2,20.24,13.25,60.16,9.52,69.48,7.53,79.93,8.64,89.95c1.09,9.85,4.6,19,8.62,28s8.59,17.66,12.12,26.83c2.7,7,5.32,15.85,2.76,22.58-1.22,3.21-1.88,9.85,3.07,10.32s8.87-5.14,10.36-9.07"/><path class="cls-5" d="M108,193.87c-15.24-7.46-33.27-11.21-50.13-12-8.57-.42-17.26.39-25,4.2-8,3.94-13.14,12.63-15.59,20.91-5.09,17.18,15.74,24.45,28.59,27.2a104.63,104.63,0,0,0,26.65,2.13c7-.33,15.94-1.4,20.65-7.3s8-12.61.91-17.52-16.5-6.6-24.61-8.21c-19.19-3.8-49.12-7.41-60.19,13.36-4.8,9-4.34,15.64,2.9,23,5.87,6,13.77,9.45,21.6,12C49.23,256.7,70,259,84.27,249.3c2.6-1.77,4.43-5.1,5.48-8,.37-1,1.36-5.41-1.24-3.64-9.57,6.52-22.5,6.46-33.54,5s-22.41-5.06-31.5-11.56A40.6,40.6,0,0,1,16.93,225a17,17,0,0,1-2.7-4.34l-.42-1.22q-.62-2.65,0-1c6.06-4.86,14.49-5.13,21.89-5.34,14.67-.42,30.41,1.77,44.17,7,3.51,1.34,8.77,3.31,10.5,6.92-2.76-5.77,6.83-7.82,1.68-5.61-.61.26-1.26.47-1.89.67a36.69,36.69,0,0,1-5.37,1.18c-8.65,1.4-17.72.88-26.35-.37-9.7-1.4-39-7.79-33.48-23.45-.37,1-.93,1.4.26.31a16.49,16.49,0,0,1,3.38-2.14,31.26,31.26,0,0,1,9.23-2.76c7.54-1.35,15.44-.89,23,0,13.56,1.67,27.8,5.11,40.13,11.15,3,1.45,9.61-11,7.05-12.21"/><path class="cls-6" d="M103.62,189.51c-15.24-7.46-33.27-11.21-50.13-12-8.57-.42-17.26.39-25,4.2-8,3.94-13.14,12.63-15.59,20.91C7.76,219.76,28.59,227,41.44,229.78a104.63,104.63,0,0,0,26.65,2.13c7-.33,15.94-1.4,20.65-7.3s8-12.61.91-17.52-16.5-6.6-24.61-8.21c-19.19-3.8-49.12-7.41-60.19,13.36-4.8,9-4.34,15.64,2.9,23,5.87,6,13.77,9.45,21.6,12,15.52,5.08,36.32,7.37,50.56-2.32,2.6-1.77,4.43-5.1,5.48-8,.37-1,1.36-5.41-1.24-3.64-9.57,6.52-22.5,6.46-33.54,5s-22.41-5.06-31.5-11.56a40.6,40.6,0,0,1-6.55-6.09,17,17,0,0,1-2.7-4.34l-.42-1.22q-.62-2.65,0-1c6.06-4.86,14.49-5.13,21.89-5.34,14.67-.42,30.41,1.77,44.17,7,3.51,1.34,8.77,3.31,10.5,6.92-2.76-5.77,6.83-7.82,1.68-5.61-.61.26-1.26.47-1.89.67a36.69,36.69,0,0,1-5.37,1.18c-8.65,1.4-17.72.88-26.35-.37-9.7-1.4-39-7.79-33.48-23.45-.37,1-.93,1.4.26.31a16.49,16.49,0,0,1,3.38-2.14,31.26,31.26,0,0,1,9.23-2.76c7.54-1.35,15.44-.89,23,0,13.56,1.67,27.8,5.11,40.13,11.15,3,1.45,9.61-11,7.05-12.21"/><path class="cls-5" d="M189.27,39.4c-23.68,4.73-44.17,18.44-62.33,33.8-9.46,8-18.86,16.24-27.55,25.09a154.65,154.65,0,0,0-11.27,12.53C85,96.14,79.4,81.7,70.07,70.25,62,60.4,45.84,83,52.69,91.41c10.83,13.29,16.36,31.26,17.81,48.16.67,7.8,7.35,8.92,12.85,4.14,7.91-6.87,13-16.23,19.86-24,7.51-8.47,16.36-15.74,24.85-23.18C144.61,82,162.54,69,184.52,64.6c6.42-1.28,11.09-9.21,12.19-15.09,1-5.27-1-11.38-7.45-10.1"/><path class="cls-7" d="M186,36.13c-23.68,4.73-44.17,18.44-62.33,33.8-9.46,8-18.86,16.24-27.55,25.09a154.65,154.65,0,0,0-11.27,12.53C81.76,92.87,76.13,78.43,66.8,67c-8-9.85-24.23,12.75-17.38,21.16,10.83,13.29,16.36,31.26,17.81,48.16.67,7.8,7.35,8.92,12.85,4.14,7.91-6.87,13-16.23,19.86-24,7.51-8.47,16.36-15.74,24.85-23.18,16.54-14.51,34.48-27.54,56.46-31.92,6.42-1.28,11.09-9.21,12.19-15.09,1-5.27-1-11.38-7.45-10.1"/></g></g></g></svg>