<svg id="Layer_1" data-name="Layer 1" xmlns="http://www.w3.org/2000/svg" viewBox="0 0 64 64"><defs><style>.cls-1{fill:#acc034;}</style></defs><title>icon-tw</title><path class="cls-1" d="M-64,57.33V6.65A6.67,6.67,0,0,1-57.33,0H-6.65A6.67,6.67,0,0,1,0,6.65V57.33A6.67,6.67,0,0,1-6.65,64H-21.32V40h8l2-10.67h-10l.24-5.47c0-2.64.72-4.19,4.29-4.19h5.65l1.28-9.55s-6.05-.8-9.63-.8c-8,0-12.67,5.36-12.67,13.58l.16,6.43h-8V40h8V64H-57.33A6.67,6.67,0,0,1-64,57.33Z"/><path class="cls-1" d="M0,57.33V6.66A6.69,6.69,0,0,1,6.67,0H57.35A6.69,6.69,0,0,1,64,6.66V57.33A6.69,6.69,0,0,1,57.35,64H6.67A6.69,6.69,0,0,1,0,57.33ZM51.09,25c0-.41,0-.83,0-1.24a19.57,19.57,0,0,0,4.77-4.95,18.83,18.83,0,0,1-5.49,1.5A9.58,9.58,0,0,0,54.54,15a19.06,19.06,0,0,1-6.07,2.32,9.57,9.57,0,0,0-16.29,8.72,27.14,27.14,0,0,1-19.71-10,9.57,9.57,0,0,0,3,12.76,9.45,9.45,0,0,1-4.33-1.19s0,.07,0,.12a9.56,9.56,0,0,0,7.67,9.38,9.83,9.83,0,0,1-2.52.33,9.36,9.36,0,0,1-1.8-.17,9.57,9.57,0,0,0,8.93,6.64A19.2,19.2,0,0,1,11.51,48a19.55,19.55,0,0,1-2.28-.14,27,27,0,0,0,14.66,4.3C41.47,52.19,51.09,37.62,51.09,25Z"/><path class="cls-1" d="M64,57.33V6.66A6.69,6.69,0,0,1,70.67,0h50.68A6.69,6.69,0,0,1,128,6.66V57.33A6.69,6.69,0,0,1,121.35,64H70.67A6.69,6.69,0,0,1,64,57.33Zm22.15-.54a1.17,1.17,0,0,0,.93-.49,25.48,25.48,0,0,0,4.36-8c.19-.68,1.39-4.17,2.28-6.72a8.31,8.31,0,0,0,5.49,2.11c7.85,0,13.55-7.14,13.55-17,0-7-5.89-14.33-15.75-14.33-11.07,0-17.68,7.91-17.68,15.56,0,4.75,2,8.4,5.33,9.77a1.93,1.93,0,0,0,.71.14,1.58,1.58,0,0,0,1.55-1.27l.48-1.9a2.67,2.67,0,0,0,.1-.69,2,2,0,0,0-.6-1.35,6,6,0,0,1-1.37-4.12A10.45,10.45,0,0,1,96.36,18c5.57,0,9,3.16,9,8.25,0,6.71-2.87,11.77-6.69,11.77a3.08,3.08,0,0,1-2.46-1.12,2.7,2.7,0,0,1-.58-1.7,3.27,3.27,0,0,1,.09-.75c.25-1.06.59-2.16.92-3.22a20.2,20.2,0,0,0,1.19-5.34c0-2.6-1.6-4.35-4-4.35-3,0-5.36,3-5.36,6.92a10.35,10.35,0,0,0,.7,3.79c-.56,1.91-3.66,12.51-4.08,14.29A19.74,19.74,0,0,0,84.68,51a33.83,33.83,0,0,0,.37,4.81,1.1,1.1,0,0,0,1.1,1Z"/></svg>