<svg xmlns="http://www.w3.org/2000/svg" viewBox="0 0 250 250"><defs><style>.cls-1{fill:#ccc;}</style></defs><title>icon-locked</title><g id="Layer_3" data-name="Layer 3"><path class="cls-1" d="M30.36,249.77c-3.51,0-6.36-2.52-6.36-5.63V111.31c0-3.12,2.85-5.64,6.36-5.64H168.1V57.62c0-13.46-6-19.2-19.21-19.2h-48c-13.17,0-19.21,5.74-19.21,19.2v9.62H43.21V57.62C43.21,28,71,0,100.35,0h49c29.35,0,57.14,28,57.14,57.62v48.05h12.85c3.51,0,6.36,2.52,6.36,5.64V244.14c0,3.11-2.85,5.63-6.36,5.63h-189Zm99.31-43.22a4.81,4.81,0,0,0,4.8-4.8V177.06a19.21,19.21,0,1,0-19.21,0v24.68a4.81,4.81,0,0,0,4.8,4.8Z"/></g></svg>