<svg id="Layer_1" data-name="Layer 1" xmlns="http://www.w3.org/2000/svg" viewBox="0 0 204.5 204.5"><defs><style>.cls-1{fill:#737474;}</style></defs><title>icon-gray-fundraising</title><path class="cls-1" d="M121.53,130.67a24.68,24.68,0,0,0-7.11-3.1,79,79,0,0,0-8.05-1.71V111.5a70.72,70.72,0,0,1,18.56,3.62v-12.8a53.84,53.84,0,0,0-9-2.23,88.27,88.27,0,0,0-9.6-1.07V92.55H96.08v6.66a41.76,41.76,0,0,0-9.41,2.07,23,23,0,0,0-7.08,3.91,16.5,16.5,0,0,0-4.46,5.76,17.8,17.8,0,0,0-1.55,7.6,16.24,16.24,0,0,0,2,8.54,15.88,15.88,0,0,0,5.21,5.3,24.77,24.77,0,0,0,7.21,3A79.48,79.48,0,0,0,96.08,137v14.16q-3.3-.06-6.08-.36T84.7,150q-2.52-.48-4.91-1.16t-4.91-1.58v12.68a37.47,37.47,0,0,0,9.28,2.62,88.52,88.52,0,0,0,11.93,1.13V170h10.28v-6.66q10.67-1.16,16.46-5.88t5.79-13a16.31,16.31,0,0,0-2-8.47A16.14,16.14,0,0,0,121.53,130.67Zm-25.45-6.43a16.65,16.65,0,0,1-6.27-2.2,4.71,4.71,0,0,1-2.07-4.14,5.06,5.06,0,0,1,1.81-4q1.81-1.58,6.53-2.1Zm10.28,26.45V138.53a15.28,15.28,0,0,1,6,2.1,4.7,4.7,0,0,1,2,4.11Q114.38,149.65,106.36,150.69Z"/><path class="cls-1" d="M179.61,171.09c-.09-15.43-9.5-29.84-10.9-31.89a13,13,0,0,1-1.39-3.26l-.54-7.86c-.92-48.64-29.46-62.05-30.66-62.59-7.61-3.47-9.26-6.75-9.28-7.87v-.23c.74-1.34,4.54-4.42,8.11-6.57a24.56,24.56,0,0,0,11.81-18.66,11.1,11.1,0,0,0-2.8-8.71c-2.65-3-7-4.45-12.84-4.45a35.21,35.21,0,0,0-4.81.33c-2.17,0-3.12-.54-3.4-.78l-.21-.78A17.42,17.42,0,0,0,114.53,8a23.73,23.73,0,0,0-10.44-2.63,16.54,16.54,0,0,0-11.63,4.4l-.36.42a7.4,7.4,0,0,1-3,2.69h-.42c-1.14-.31-4.11-2.31-6.37-4.3l-.58-.44a15.51,15.51,0,0,0-20.82,2.94l-.45.65C53.21,24.49,62.38,40.36,62.77,41l.1.16c7.28,11.29,7.95,17.39,7.95,17.39v.51l.14.49a1.4,1.4,0,0,1,0,.23,4.64,4.64,0,0,0-.08.73c-.63,2.22-4.44,5.79-8.07,7.92-27.16,15.77-26.31,62-26.19,65.94A10.44,10.44,0,0,1,35.2,139a57.83,57.83,0,0,0-10.84,33.2c.08,25,45,28.73,71.74,28.73,4.1,0,6.82-.1,7.47-.12h4.54c34.43,0,56.86-5.77,66.67-17.15C179.68,178,179.74,172.74,179.61,171.09ZM70.76,36.29c-.49-.89-6.35-11.76-2.45-19.43a6.09,6.09,0,0,1,8.06-.95c2.84,2.47,7.86,6.29,12,6.39,1.84.14,6.35-.21,11-6.06a7.92,7.92,0,0,1,4.81-1.47,14.5,14.5,0,0,1,6.29,1.65,8.3,8.3,0,0,1,3.31,4c.61,3.31,3.84,8.31,12.94,8.31l.78-.07a25.64,25.64,0,0,1,3.71-.27c3.48,0,5.42.76,6,1.42.12.13.43.46.33,1.75a15.28,15.28,0,0,1-7.25,11.23c-4.31,2.58-11.58,7.64-12.53,12.81a8.67,8.67,0,0,0-.17,1.11,54.43,54.43,0,0,1-7.38,1.83,43,43,0,0,1,2.47-8.44A4.69,4.69,0,1,0,104,46.52a52.8,52.8,0,0,0-3.44,12.95H97.29a91.93,91.93,0,0,0-2.51-17.15,4.68,4.68,0,1,0-9.15,2l.05.21a83.93,83.93,0,0,1,2.18,14.18A78.07,78.07,0,0,1,80,57.14C79.63,54.65,78,47.52,70.76,36.29ZM167.29,178c-4.68,5-18.59,13.45-59.18,13.45h-4.82s-2.81.12-7.2.12c-28.78,0-62.38-5.09-62.38-19.44V172a48.89,48.89,0,0,1,5.13-21,17.46,17.46,0,0,0,2,5,4.68,4.68,0,0,0,7.78-5.19c-1.16-1.74-2.4-10.3-2.67-18.4,0-8.56,1.37-44.09,21.55-55.81C68.56,76,75.08,72,78.39,66.4c1.34.33,2.95.69,4.79,1a55.85,55.85,0,0,0-4.45,6.78,4.68,4.68,0,1,0,8.19,4.53l.07-.13a48.82,48.82,0,0,1,7.36-9.86c1.43.08,2.9.12,4.42.12,1.8,0,3.66-.07,5.56-.21,5.28,1.71,9.8,7.79,11.15,10.09A4.68,4.68,0,0,0,123.57,74a39.41,39.41,0,0,0-6-7.63c1-.27,1.93-.56,2.89-.88,2.15,2.75,5.75,5.71,11.72,8.43,1,.47,24.44,11.9,25.2,54.37l.56,8.16c.05,1.17.5,3.53,2.65,7.41l.26.41c.09.13,9.36,13.58,9.36,27l-.06.18.1.43C170.3,172.42,170.18,174.94,167.29,178Z"/></svg>