<svg xmlns="http://www.w3.org/2000/svg" viewBox="0 0 250 250"><defs><style>.cls-1{fill:#e1490f;}</style></defs><title>icon-members-pay-you</title><g id="Layer_3" data-name="Layer 3"><path class="cls-1" d="M125,0A125,125,0,1,0,250,125,125,125,0,0,0,125,0Zm60.2,161a28,28,0,0,1-28,28h-70a28,28,0,0,1-28-28V91a28,28,0,0,1,28-28h70a27.53,27.53,0,0,1,9.72,1.84L154.77,77H80.19a7,7,0,0,0-7,7v84a7,7,0,0,0,7,7h84a7,7,0,0,0,7-7V149.14l14-14Zm27.46-75.81-77,77a3.56,3.56,0,0,1-5,0L89.31,120.95a3.6,3.6,0,0,1,0-5l16.34-16.33a3.56,3.56,0,0,1,5,0l19.91,19.9a3.54,3.54,0,0,0,2.52,1,3.6,3.6,0,0,0,2.53-1L191.15,64a3.57,3.57,0,0,1,2.53-1,3.53,3.53,0,0,1,2.51,1l16.45,16.21a3.53,3.53,0,0,1,0,5Z"/></g></svg>