<svg xmlns="http://www.w3.org/2000/svg" viewBox="0 0 250 250"><defs><style>.cls-1{fill:#e1490f;}</style></defs><title>icon-activate-payments-genius</title><g id="Layer_3" data-name="Layer 3"><path class="cls-1" d="M90.51,69,70,89.51v13.83A24,24,0,1,1,101.16,69Z"/><path class="cls-1" d="M124.46,124.38l9,9a13,13,0,0,1-4,1.48,5.76,5.76,0,0,1-5-1.79,6.14,6.14,0,0,1-2-4.18A6.33,6.33,0,0,1,124.46,124.38Z"/><path class="cls-1" d="M153.15,139.12c1.92,1.92,2.75,3.81,2.47,5.65a9.06,9.06,0,0,1-2,3.83l-10-10a15.43,15.43,0,0,1,4.54-1.48A6.17,6.17,0,0,1,153.15,139.12Z"/><path class="cls-1" d="M125.51,81H117c0,.33,0,.66,0,1a35.91,35.91,0,0,1-3,14.4,10.87,10.87,0,0,1,1,4.6,11,11,0,1,1-11.39-11A23.81,23.81,0,0,0,105,82c0-.34,0-.67,0-1H95.49L82,94.49v27.56L145.55,187l43-43ZM162,161.91l-5.09-5.08q-5.6,4.47-9.71,5.31-7.3,1.42-14.3-5.72l6.9-6.9c2.38,1.91,4.15,3,5.31,3.32,1.81.48,3.85-.09,6.13-1.69l-10.91-10.91-2.68,1.46q-6.32,3.45-10.87,2.9a13.74,13.74,0,0,1-8.17-4.15,16.22,16.22,0,0,1-3.53-5.1,14.18,14.18,0,0,1,.37-12.07,26,26,0,0,1,3.32-4.6l-3.4-3.4,2.48-2.48,3.45,3.45q4.47-3.81,8.55-4.46,7-1.58,13.32,4.41l-6.72,6.72a13.07,13.07,0,0,0-4.08-2.56c-1.85-.57-3.68-.08-5.48,1.49l9.74,9.73q8.15-4,11.84-4.43,6.12-.75,11,4.13,6.44,6.44,4.62,14.07a21.18,21.18,0,0,1-4.75,9l5.14,5.13Z"/><path class="cls-1" d="M125,0A125,125,0,1,0,250,125,125,125,0,0,0,125,0Zm20.45,204L70,126.95V116.28A36,36,0,1,1,114.56,69h15.93l75,75Z"/></g></svg>