<svg id="Layer_1" data-name="Layer 1" xmlns="http://www.w3.org/2000/svg" viewBox="0 0 204.5 204.5"><defs><style>.cls-1{fill:#737474;}</style></defs><title>icon-gray-event-registration</title><path class="cls-1" d="M135,26.44H117.57c0-.65,0-1.31-.09-2a21.44,21.44,0,0,0-42.78,2H57.31a5.93,5.93,0,0,0-5.91,5.91v23a5.94,5.94,0,0,0,5.91,5.91H135a5.94,5.94,0,0,0,5.91-5.91v-23A5.93,5.93,0,0,0,135,26.44ZM95.26,16.86a9.62,9.62,0,1,1-8.69,10.46A9.63,9.63,0,0,1,95.26,16.86Z"/><path class="cls-1" d="M156.92,54.09v14l11.3-11.3V54.09a17.31,17.31,0,0,0-17.29-17.29h-1.58V48.1h1.58A6,6,0,0,1,156.92,54.09Z"/><path class="cls-1" d="M156.92,118.67v63a6,6,0,0,1-6,6H43.21a6,6,0,0,1-6-6V54.09a6,6,0,0,1,6-6h1.58V36.79H43.21A17.31,17.31,0,0,0,25.92,54.09V181.66a17.31,17.31,0,0,0,17.29,17.29H150.92a17.31,17.31,0,0,0,17.29-17.29V107.37Z"/><polygon class="cls-1" points="95.58 169.36 47.9 121.67 62.54 107.03 95.58 140.07 179.35 56.3 194 70.95 95.58 169.36"/></svg>