<svg id="Layer_1" data-name="Layer 1" xmlns="http://www.w3.org/2000/svg" viewBox="0 0 204.5 204.5"><defs><style>.cls-1{fill:#737474;}</style></defs><title>icon-gray-business-services</title><path class="cls-1" d="M183,90.44H22.34a17,17,0,0,0-17,17V178a17,17,0,0,0,16.94,17.06H183a17,17,0,0,0,17-17V107.5a17,17,0,0,0-16.94-17.06ZM190.77,178a7.76,7.76,0,0,1-7.72,7.79H22.34A7.76,7.76,0,0,1,14.63,178V107.5a7.76,7.76,0,0,1,7.71-7.79H183a7.76,7.76,0,0,1,7.72,7.79Z"/><path class="cls-1" d="M58.32,127.46a14.57,14.57,0,0,0-5.24-3.54,18.55,18.55,0,0,0-7-1.25,18.12,18.12,0,0,0-6.87,1.25A14.77,14.77,0,0,0,34,127.46a15.59,15.59,0,0,0-3.33,5.5,20.77,20.77,0,0,0-1.16,7.11,21,21,0,0,0,1.15,7.11,15.5,15.5,0,0,0,3.3,5.5,14.56,14.56,0,0,0,5.24,3.54,18.57,18.57,0,0,0,7,1.25,18.15,18.15,0,0,0,6.87-1.25,14.75,14.75,0,0,0,5.24-3.54,15.57,15.57,0,0,0,3.33-5.5,20.77,20.77,0,0,0,1.16-7.11A21,21,0,0,0,61.65,133,15.54,15.54,0,0,0,58.32,127.46Zm-4.54,17.25a9.86,9.86,0,0,1-1.71,3.36,7.26,7.26,0,0,1-2.6,2,7.74,7.74,0,0,1-3.31.7,7.85,7.85,0,0,1-3.33-.7,7.36,7.36,0,0,1-2.63-2,9.67,9.67,0,0,1-1.73-3.36,17.88,17.88,0,0,1,0-9.29A10,10,0,0,1,40.18,132a7,7,0,0,1,2.61-2,8,8,0,0,1,3.3-.68,8.15,8.15,0,0,1,3.35.68,7,7,0,0,1,2.63,2,10.05,10.05,0,0,1,1.71,3.38,17.88,17.88,0,0,1,0,9.29Z"/><path class="cls-1" d="M96.79,126.78a12.81,12.81,0,0,0-4.63-3.09,14.66,14.66,0,0,0-5.31-1A11.26,11.26,0,0,0,81.38,124a11.91,11.91,0,0,0-3.86,3.26h-.14L77,123.5H69.89v49H78V156q0-1.25-.07-1.93h.14a11.94,11.94,0,0,0,3.6,2.41,11.68,11.68,0,0,0,4.83,1,13.67,13.67,0,0,0,10-4.32,16.49,16.49,0,0,0,3.42-5.57,22.12,22.12,0,0,0,1.3-8A21.2,21.2,0,0,0,100,132,15.31,15.31,0,0,0,96.79,126.78Zm-4.44,17.65a11.31,11.31,0,0,1-1.49,3.5A6.67,6.67,0,0,1,85.07,151a8.1,8.1,0,0,1-2.24-.31,9.74,9.74,0,0,1-2-.79,10.21,10.21,0,0,1-1.61-1.06A10,10,0,0,1,78,147.69V132.93a11.49,11.49,0,0,1,3.38-2.72,8.87,8.87,0,0,1,4-1,6.7,6.7,0,0,1,3,.68,6.46,6.46,0,0,1,2.34,2,9.9,9.9,0,0,1,1.5,3.35,20.62,20.62,0,0,1,0,9.21Z"/><path class="cls-1" d="M132.67,126.64a11.65,11.65,0,0,0-4.58-3,17,17,0,0,0-5.79-1,15.78,15.78,0,0,0-5.83,1.11,14.36,14.36,0,0,0-5,3.33,16.05,16.05,0,0,0-3.48,5.6,22,22,0,0,0-1.3,7.89,19.66,19.66,0,0,0,1.38,7.79,14.06,14.06,0,0,0,3.74,5.23,14.51,14.51,0,0,0,5.52,2.92,24.14,24.14,0,0,0,6.68.91,36,36,0,0,0,6.73-.62,24.2,24.2,0,0,0,4.82-1.3V149a38.12,38.12,0,0,1-5.19,1.37,26.72,26.72,0,0,1-4.92.48,16.43,16.43,0,0,1-4-.46,9.2,9.2,0,0,1-3.23-1.47,7.53,7.53,0,0,1-2.24-2.63,9.92,9.92,0,0,1-1-3.91h21.69q.07-1.19.1-2.9a24.2,24.2,0,0,0-1.08-7.64A14.06,14.06,0,0,0,132.67,126.64Zm-17.34,9.5a10.9,10.9,0,0,1,.68-2.77,7.49,7.49,0,0,1,1.38-2.27,6.21,6.21,0,0,1,4.8-2.1,6,6,0,0,1,2.68.56,5.47,5.47,0,0,1,1.91,1.54,6.81,6.81,0,0,1,1.16,2.27,9.55,9.55,0,0,1,.39,2.77Z"/><path class="cls-1" d="M173.62,129.92a10.57,10.57,0,0,0-1.69-3.3,9.46,9.46,0,0,0-2.48-2.26,10.48,10.48,0,0,0-3.09-1.28,14.83,14.83,0,0,0-3.5-.41,13.63,13.63,0,0,0-3.6.46,14.72,14.72,0,0,0-3.09,1.21,12.45,12.45,0,0,0-2.49,1.74,12.22,12.22,0,0,0-1.81,2h-.14L151,123.5h-6.7v33.1h8.1V133.82a11.67,11.67,0,0,1,3.84-3.23,9.82,9.82,0,0,1,4.53-1.11,6.21,6.21,0,0,1,3,.68,4.19,4.19,0,0,1,1.86,2.25,6.76,6.76,0,0,1,.38,1.67,22,22,0,0,1,.1,2.29V156.6h8.1V135.11q0-1.64-.12-2.89A10.89,10.89,0,0,0,173.62,129.92Z"/><path class="cls-1" d="M33.23,83.17a4.62,4.62,0,0,0,3.17-1.26L92.72,29a13.11,13.11,0,0,0,20,0L169,81.91a4.64,4.64,0,1,0,6.35-6.76h0l-59.57-56A13.13,13.13,0,0,0,103.19,7.32l-.48-.45-.48.45A13.13,13.13,0,0,0,89.64,19.15l-59.57,56a4.63,4.63,0,0,0,3.17,8Z"/></svg>