<svg id="Layer_1" data-name="Layer 1" xmlns="http://www.w3.org/2000/svg" viewBox="0 0 204.5 204.5"><defs><style>.cls-1{fill:#737474;}</style></defs><title>icon-gray-group-gifts</title><path class="cls-1" d="M194.58,60.65H132.47c9.3-3.85,17.61-9.35,20.37-17.09s-.16-16-8.68-24.76a21.69,21.69,0,0,0-14.43-5.91c-12.68,0-23.13,11.89-31.17,35.37C91.51,27.38,82.23,16.78,70.91,16.78a19.41,19.41,0,0,0-13,5.34c-7.5,7.67-10,15.07-7.59,22C53.14,52,62.44,57.28,72,60.68H11.42V97.35H24v90.13H182V97.33h12.58ZM129.72,22.36a12.53,12.53,0,0,1,7.7,3.11h0c5.73,5.87,7.91,10.89,6.48,14.91-3.21,9-23.14,15.3-38.62,18C112,35.39,120.8,22.36,129.72,22.36ZM59.29,40.92c-1.14-3.22.69-7.32,5.36-12.11a10.13,10.13,0,0,1,6.25-2.56c3.55,0,12.22,3,20.14,29.57C78.86,53.52,62,48.4,59.29,40.92ZM20.9,87.85V70.13H91.26V87.86H20.9Zm12.59,9.47H91.26V178H33.48Zm139,80.65H114.75V97.33h57.77Zm12.58-90.13H114.75V70.13H185.1Z"/></svg>