<svg id="Layer_1" data-name="Layer 1" xmlns="http://www.w3.org/2000/svg" viewBox="0 0 204.5 204.5"><defs><style>.cls-1{fill:#737474;}</style></defs><title>icon-gray-cart</title><path class="cls-1" d="M1.58,61l19.76,97H140.81l11.44-55.94,13.93-66.52,1.6-.67a9,9,0,0,0,9,1.15l21.11-8.89a9.13,9.13,0,1,0-6.51-17.06l-.57.24L169.7,19.2a9.12,9.12,0,0,0-5.51,7.27l-6,2.52-6.7,32Zm11.17,9.13H149.46l-6.19,30.29-10.15,48.47H28.8Z"/><path class="cls-1" d="M99.95,184.76a17.11,17.11,0,1,0,17.11-17.11A17.11,17.11,0,0,0,99.95,184.76Z"/><path class="cls-1" d="M31.55,184.76a17.11,17.11,0,1,0,17.11-17.11A17.11,17.11,0,0,0,31.55,184.76Z"/><path class="cls-1" d="M37.95,92.57h84.18a4.57,4.57,0,0,1,0,9.13H37.95a4.57,4.57,0,0,1,0-9.13Z"/><path class="cls-1" d="M45.48,120.93H114.6a4.57,4.57,0,0,1,0,9.13H45.48a4.57,4.57,0,0,1,0-9.13Z"/></svg>