<svg id="Layer_1" data-name="Layer 1" xmlns="http://www.w3.org/2000/svg" viewBox="0 0 204.5 204.5"><defs><style>.cls-1{fill:#737474;}</style></defs><title>icon-gray-tickets</title><rect class="cls-1" x="43.46" y="131.97" width="118.49" height="7.87"/><rect class="cls-1" x="43.46" y="63.02" width="118.49" height="7.87"/><path class="cls-1" d="M113.48,116c.37,1.56-.44,2.16-1.82,1.31l-9-5.49-9,5.49c-1.37.84-2.18.25-1.81-1.31l2.45-10.22-8-6.8c-1.22-1-1-2,.69-2.13L97.54,96l4-9.72c.61-1.48,1.62-1.48,2.23,0l4,9.72,10.46.83c1.6.12,1.9,1.08.69,2.13l-8,6.84Z"/><path class="cls-1" d="M166.45,99l-8,6.84L160.91,116c.37,1.56-.44,2.16-1.81,1.31l-9-5.49-9,5.49c-1.37.84-2.18.25-1.81-1.31l2.45-10.22-8-6.84c-1.22-1-1-2,.69-2.13L145,96l4-9.72c.61-1.48,1.62-1.48,2.23,0l4,9.72,10.46.83C167.35,96.94,167.67,97.9,166.45,99Z"/><path class="cls-1" d="M39.64,96.82,50.09,96l4-9.72c.62-1.48,1.63-1.48,2.23,0l4,9.72,10.46.83c1.6.12,1.9,1.08.69,2.13l-8,6.84L66,116c.37,1.56-.44,2.16-1.81,1.31l-9-5.49-9,5.49c-1.37.84-2.18.25-1.81-1.31l2.45-10.22L39,99C37.73,97.9,38.06,96.94,39.64,96.82Z"/><path class="cls-1" d="M194.58,56.64h-.28a6.13,6.13,0,0,1-6-6,9.42,9.42,0,0,0-9.42-9.29H25.57a9.42,9.42,0,0,0-9.43,9.3,6.13,6.13,0,0,1-6.07,6A9.42,9.42,0,0,0,.7,66v70.82a9.41,9.41,0,0,0,9.38,9.42,6.12,6.12,0,0,1,6.06,6A9.42,9.42,0,0,0,25.22,162h153.7a9.42,9.42,0,0,0,9.41-9.42q0-.16,0-.33a6.12,6.12,0,0,1,6-5.93h.28A9.42,9.42,0,0,0,204,136.9V66A9.42,9.42,0,0,0,194.58,56.64Zm0,80.24h-.14a15.53,15.53,0,0,0-15.53,15.53v.15H25.57v-.15a15.53,15.53,0,0,0-15.46-15.52V66A15.52,15.52,0,0,0,25.56,50.72H178.93A15.52,15.52,0,0,0,194.44,66h.14Z"/></svg>