<svg id="Layer_1" data-name="Layer 1" xmlns="http://www.w3.org/2000/svg" viewBox="0 0 167 167"><defs><style>.cls-1{fill:#fff;}.cls-2{fill:#acc034;}</style></defs><title>icon-calendar</title><path class="cls-1" d="M147.64,6H126.58a18.93,18.93,0,0,0-14-6A17.93,17.93,0,0,0,98.89,6H66.45A17.8,17.8,0,0,0,52.86,0,17.8,17.8,0,0,0,39.27,6H17.78C7.64,6,0,14,0,24.5V148.68C0,159.12,7.64,167,17.78,167H147.64c10.67,0,19.36-8.22,19.36-18.32V24.5C167,14.3,158.31,6,147.64,6Z"/><path class="cls-2" d="M147.62,18H120.25c0-3.84-3.4-6-6.7-6a5.74,5.74,0,0,0-6.07,6H59.83a5.65,5.65,0,0,0-6-6,5.66,5.66,0,0,0-6,6H17.8c-3.71,0-5.8,2.77-5.8,6.49V148.7a6.3,6.3,0,0,0,6.3,6.3H147.61a7.42,7.42,0,0,0,7.39-7.39V24.49C155,20.77,151.32,18,147.62,18ZM142,142H23V59H142Zm0-88H23V30H48v6.18a6.08,6.08,0,0,0,1,3.35c.11.16.22.31.34.46a5.85,5.85,0,0,0,2.28,1.7,6.21,6.21,0,0,0,2.39.47A6.38,6.38,0,0,0,55.25,42a6.28,6.28,0,0,0,1.14-.35,5.83,5.83,0,0,0,1.48-.89,6.8,6.8,0,0,0,.8-.81c.12-.15.23-.3.34-.46a6.08,6.08,0,0,0,1-3.35V30h47v6.18a5.52,5.52,0,0,0,1.17,3.35,5.58,5.58,0,0,0,.39.46,7.75,7.75,0,0,0,.9.81,7.13,7.13,0,0,0,2.19,1.09,6.42,6.42,0,0,0,1.85.27,6.69,6.69,0,0,0,3.53-1l.51-.34a7.75,7.75,0,0,0,.9-.81,5.58,5.58,0,0,0,.39-.46A5.52,5.52,0,0,0,120,36.18V30h22Z"/><path class="cls-2" d="M35,72V95H59V72ZM53,90H41V77H53Z"/><path class="cls-2" d="M71,72V95H95V72ZM89,90H77V77H89Z"/><path class="cls-2" d="M107,72V95h24V72Zm18,18H113V77h12Z"/><path class="cls-2" d="M35,108v23H59V108Zm18,18H41V113H53Z"/><path class="cls-2" d="M71,108v23H95V108Zm18,18H77V113H89Z"/><path class="cls-2" d="M107,108v23h24V108Zm18,18H113V113h12Z"/></svg>