<svg id="Layer_1" data-name="Layer 1" xmlns="http://www.w3.org/2000/svg" viewBox="0 0 140 149.73"><defs><style>.cls-1{fill:#fff;}.cls-2{fill:#acc034;}</style></defs><title>icon-signup-hand-green</title><path class="cls-1" d="M107.17,0H17.83A17.84,17.84,0,0,0,0,17.8V131.93a17.84,17.84,0,0,0,17.83,17.8h89.34A17.84,17.84,0,0,0,125,131.93V17.8A17.84,17.84,0,0,0,107.17,0Z"/><rect class="cls-2" x="84" y="85" width="15" height="9"/><rect class="cls-2" x="26" y="70" width="54" height="9"/><rect class="cls-2" x="84" y="99" width="15" height="9"/><rect class="cls-2" x="26" y="85" width="54" height="9"/><rect class="cls-2" x="26" y="99" width="54" height="9"/><rect class="cls-2" x="51" y="114" width="22" height="9"/><rect class="cls-2" x="84" y="70" width="15" height="9"/><path class="cls-2" d="M107.17,12H17.83A5.83,5.83,0,0,0,12,17.83V50h9V22H54V50h59V17.83A5.83,5.83,0,0,0,107.17,12Z"/><rect class="cls-2" x="26" y="26" width="23" height="23"/><path class="cls-2" d="M12,132.17A5.83,5.83,0,0,0,17.83,138h89.34a5.83,5.83,0,0,0,5.83-5.83V54H12ZM21,64h83v65H21Z"/><path class="cls-1" d="M129.25,80.19l-36-6.55V72.39a19.33,19.33,0,0,0-38.65,0V85.33C47.5,88.09,43,94.71,43,103.27v11.58c0,9.41,5.14,18.41,14.47,25.36,8,6,18.15,9.52,27.16,9.52h38.59c7.14,0,12.37-3.4,14.72-9.57,1.59-4.18,1.59-9,1.59-13.74V92.77A12.82,12.82,0,0,0,129.25,80.19Z"/><path class="cls-2" d="M127.94,87.83l-42-7.64h-.43v-7.8a11.58,11.58,0,0,0-23.16,0v19.3c-7.72,0-11.58,5.17-11.58,11.58v11.58c0,14.89,19,27.13,33.89,27.13h38.59c8.53,0,8.57-7,8.57-15.56V92.77C131.79,90.65,130.21,88.18,127.94,87.83Zm-8.57,46.43H84.63c-10.65,0-26.17-8.76-26.17-19.41V103.27c0-1.54,4.44-2.78,7.72-3.4V111.1H70V72.39a3.86,3.86,0,0,1,7.72,0v31h3.85V87.52L89.34,89v14.4H93.2V89.72l7.72,1.47v12.2h3.85V91.89l7.72,1.47v10h3.86v-9.3l7.72,1.47v30.87C124.08,130.67,125.35,134.26,119.37,134.26Z"/><path class="cls-2" d="M119.37,134.26H84.63c-10.65,0-26.17-8.76-26.17-19.41V103.27c0-1.54,4.44-2.78,7.72-3.4V111.1H70V72.39a3.86,3.86,0,0,1,7.72,0v31h3.85V87.52L89.34,89v14.4H93.2V89.72l7.72,1.47v12.2h3.85V91.89l7.72,1.47v10h3.86v-9.3l7.72,1.47v30.87C124.08,130.67,125.35,134.26,119.37,134.26Z"/><path class="cls-1" d="M119.37,134.26H84.63c-10.65,0-26.17-8.76-26.17-19.41V103.27c0-1.54,4.44-2.78,7.72-3.4V111.1H70V72.39a3.86,3.86,0,0,1,7.72,0v31h3.85V87.52L89.34,89v14.4H93.2V89.72l7.72,1.47v12.2h3.85V91.89l7.72,1.47v10h3.86v-9.3l7.72,1.47v30.87C124.08,130.67,125.35,134.26,119.37,134.26Z"/></svg>