<svg id="Layer_1" data-name="Layer 1" xmlns="http://www.w3.org/2000/svg" viewBox="0 0 166 166"><defs><style>.cls-1{fill:#fff;}.cls-2{fill:#acc034;}</style></defs><title>icon-contact</title><path class="cls-1" d="M159,52.76l-.39-.36-.43-.33L143,40.4V23.61C143,13.9,134.69,6,124.47,6h-28L95,4.85A17.62,17.62,0,0,0,83.08.25a17.85,17.85,0,0,0-12,4.63L69.61,6H41.72C31.4,6,23,13.9,23,23.61V40.3L8.3,51.58l-.18.14L8,51.86C6.62,53,0,58.94,0,68.64v79.25A18.37,18.37,0,0,0,18.13,166H148a18,18,0,0,0,18-18.11V68C166,59.62,160.18,53.83,159,52.76Z"/><path class="cls-2" d="M96.74,46.58l-.57-.27a22.38,22.38,0,0,0-9-1.78,20.07,20.07,0,0,0-20.05,20c0,7.25,4.82,11,9.58,11a13,13,0,0,0,11-5.87,7,7,0,0,0,1.79,3.88,6.72,6.72,0,0,0,4.93,2c7.58,0,15.25-6.91,15.25-20.12,0-14.29-10-24.26-24.42-24.26-17.34,0-30.42,13.74-30.42,32,0,15.14,10.68,26.13,25.39,26.13A30.23,30.23,0,0,0,95.07,86l.63-.33-1.88-5.06-.83.47a24.33,24.33,0,0,1-11.85,2.73c-12,0-20-8.47-20-21.08,0-15.14,9.89-26.12,23.52-26.12,11.61,0,18.82,7.43,18.82,19.38,0,5.24-1.49,9.7-4.08,12.24A5.82,5.82,0,0,1,95.55,70h0a1.7,1.7,0,0,1-1.42-.65c-.63-.78-1.17-2.71-.23-7.47Zm-9,12.48c-.87,4.89-4.94,10.36-9.09,10.36s-4.54-3.74-4.54-5.35c0-7.47,5.53-13.79,12.08-13.79a13.62,13.62,0,0,1,3.12.35Z"/><path class="cls-2" d="M150.89,61.61,131,46.33V24.55A6.57,6.57,0,0,0,124.45,18H92.31l-5.14-4a5.69,5.69,0,0,0-3.46-1.67,3.56,3.56,0,0,0-.46,0h-.16a4,4,0,0,0-.49,0A5.89,5.89,0,0,0,78.84,14L73.7,18h-32A6.76,6.76,0,0,0,35,24.74v21.5L15.6,61.12A10.69,10.69,0,0,0,12,68.63v79.22q0,.32,0,.63A6.06,6.06,0,0,0,17.52,154q.31,0,.63,0H147.94c.21,0,.41,0,.62,0a6,6,0,0,0,5.41-5.41c0-.21,0-.41,0-.62V68C154,64.47,150.89,61.61,150.89,61.61ZM42,24h82V84.36L97.3,104,86.8,96a5.91,5.91,0,0,0-8.36,0l-10.65,8L42,84.36ZM25,67.6l10-8.45V79.9L25,71.39Zm0,12.3L63,109,25,138ZM30.8,142l52.27-38.54L135.35,142ZM142,138l-38-29,38-29.1Zm1-66.5-12,9.08V58.38l12,9Z"/><path class="cls-1" d="M12,148.48A6.06,6.06,0,0,0,17.52,154,6.19,6.19,0,0,1,12,148.48ZM78.84,14,73.7,18h.16L79,14a6,6,0,0,1,3.59-1.75A5.89,5.89,0,0,0,78.84,14ZM148.56,154a6,6,0,0,0,5.41-5.41A6.09,6.09,0,0,1,148.56,154Z"/></svg>