<svg xmlns="http://www.w3.org/2000/svg" viewBox="0 0 250 250"><defs><style>.cls-1{fill:#e1490f;}.cls-2{fill:#fff;}</style></defs><title>icon-chat-support</title><g id="Layer_3" data-name="Layer 3"><path class="cls-1" d="M125,250A125,125,0,1,0,0,125,125,125,0,0,0,125,250ZM123,61a8.15,8.15,0,0,1,8.45-8h64.91c4.6,0,8.65,3.39,8.65,8v39.67a8.62,8.62,0,0,1-8.65,8.34H159.27L141,127.13V109h-9.55a8.44,8.44,0,0,1-8.45-8.34ZM35,70.63C35,65.47,39.74,61,44.87,61H118V74H48v75H186V114h10.35a5.07,5.07,0,0,0,1.65-.2v57.78c0,5.68-4,8.42-9.14,8.42H136s-.26.23-.26,2.1c0,.94-.1,2.29-.07,4.25.07,9.65,8.75,10.81,13.51,10.81,1.41,0,2.45-.07,2.83-.07.85,0,1.3.51,1.3,1h0c0,.45-.43.92-1.34.92H82c-.92,0-1.38-.48-1.38-.94s.45-1,1.33-1c.4,0,1.45.1,2.85.1,4.43,0,12.18-1,13.13-9a14.62,14.62,0,0,0,.1-1.71V180H44.87c-5.13,0-9.87-2.74-9.87-8.42Z"/><path class="cls-2" d="M44.87,180H98v6.45a14.62,14.62,0,0,1-.1,1.71c-1,8.07-8.7,9-13.13,9-1.4,0-2.45-.1-2.85-.1-.89,0-1.33.49-1.33,1S81,199,82,199h70c.91,0,1.33-.46,1.33-.92h0c0-.47-.46-1-1.31-1-.38,0-1.44.09-2.86.09-4.76,0-13.5-1.2-13.57-10.85,0-2,.18-3.31.18-4.25,0-1.87.26-2.08.26-2.1h52.86c5.17,0,9.14-2.73,9.14-8.42V113.8a5.07,5.07,0,0,1-1.65.2H186v35H48V74h70V61H44.87C39.74,61,35,65.47,35,70.63V171.58C35,177.26,39.74,180,44.87,180Z"/><path class="cls-2" d="M131.45,109H141v18.13L159.27,109h37.08a8.62,8.62,0,0,0,8.65-8.34V61c0-4.6-4-8-8.65-8H131.45A8.15,8.15,0,0,0,123,61v39.67A8.44,8.44,0,0,0,131.45,109Z"/></g></svg>