<svg id="Layer_3" data-name="Layer 3" xmlns="http://www.w3.org/2000/svg" viewBox="0 0 250 250"><defs><style>.cls-1{fill:#e1490f;}</style></defs><title>Artboard 1</title><path class="cls-1" d="M140.72,110.5H72.81c0,11.5-8,17.79-17.79,17.79v21.92c9.82,0,17.79,6.29,17.79,17.79h67.91c0-11.5,8-17.79,17.79-17.79V128.29C148.68,128.29,140.72,122,140.72,110.5Zm-34,45.91a17.15,17.15,0,1,1,17.16-17.16A17.18,17.18,0,0,1,106.76,156.41Zm0-29.3a12.14,12.14,0,1,0,12.15,12.14A12.16,12.16,0,0,0,106.76,127.11Zm34-16.61H72.81c0,11.5-8,17.79-17.79,17.79v21.92c9.82,0,17.79,6.29,17.79,17.79h67.91c0-11.5,8-17.79,17.79-17.79V128.29C148.68,128.29,140.72,122,140.72,110.5Zm-34,45.91a17.15,17.15,0,1,1,17.16-17.16A17.18,17.18,0,0,1,106.76,156.41Zm0-29.3a12.14,12.14,0,1,0,12.15,12.14A12.16,12.16,0,0,0,106.76,127.11ZM125,0A125,125,0,1,0,250,125,125,125,0,0,0,125,0Zm45,179.5H43.52V99H170Zm17.25-17.25h-11.5v-69h-115V81.76H187.26ZM204.5,145H193V76H78V64.51H204.5ZM72.81,168h67.91c0-11.5,8-17.79,17.79-17.79V128.29c-9.83,0-17.79-6.29-17.79-17.79H72.81c0,11.5-8,17.79-17.79,17.79v21.92C64.84,150.21,72.81,156.5,72.81,168Zm33.95-45.9A17.15,17.15,0,1,1,89.6,139.25,17.17,17.17,0,0,1,106.76,122.1Zm0,29.3a12.14,12.14,0,1,0-12.14-12.15A12.16,12.16,0,0,0,106.76,151.4Z"/></svg>